{
	"asset":{
		"generator":"Khronos glTF Blender I/O v3.6.27",
		"version":"2.0"
	},
	"scene":0,
	"scenes":[
		{
			"name":"Scene",
			"nodes":[
				0,
				1,
				2
			]
		}
	],
	"nodes":[
		{
			"mesh":0,
			"name":"\u5efa\u7269",
			"translation":[
				-7.183757406892255e-05,
				0,
				-0.00022779664141125977
			]
		},
		{
			"mesh":1,
			"name":"nav3",
			"translation":[
				22.956090927124023,
				0,
				-146.64163208007812
			]
		},
		{
			"mesh":2,
			"name":"Cube"
		}
	],
	"materials":[
		{
			"doubleSided":true,
			"name":"Material",
			"pbrMetallicRoughness":{
				"baseColorFactor":[
					0.800000011920929,
					0.800000011920929,
					0.800000011920929,
					1
				],
				"metallicFactor":0,
				"roughnessFactor":0.5
			}
		}
	],
	"meshes":[
		{
			"name":"\u5efa\u7269",
			"primitives":[
				{
					"attributes":{
						"POSITION":0,
						"NORMAL":1
					},
					"indices":2
				}
			]
		},
		{
			"name":"nav3",
			"primitives":[
				{
					"attributes":{
						"POSITION":3,
						"NORMAL":4
					},
					"indices":5
				}
			]
		},
		{
			"name":"Cube",
			"primitives":[
				{
					"attributes":{
						"POSITION":6,
						"NORMAL":7,
						"TEXCOORD_0":8
					},
					"indices":9,
					"material":0
				}
			]
		}
	],
	"accessors":[
		{
			"bufferView":0,
			"componentType":5126,
			"count":485,
			"max":[
				0.001009780797176063,
				0,
				0.0012299228692427278
			],
			"min":[
				-0.0008661056053824723,
				0,
				-0.0007743296446278691
			],
			"type":"VEC3"
		},
		{
			"bufferView":1,
			"componentType":5126,
			"count":485,
			"type":"VEC3"
		},
		{
			"bufferView":2,
			"componentType":5123,
			"count":1281,
			"type":"SCALAR"
		},
		{
			"bufferView":3,
			"componentType":5126,
			"count":6,
			"max":[
				71.21184539794922,
				0,
				17.03131103515625
			],
			"min":[
				-135.19525146484375,
				0,
				-10.433090209960938
			],
			"type":"VEC3"
		},
		{
			"bufferView":4,
			"componentType":5126,
			"count":6,
			"type":"VEC3"
		},
		{
			"bufferView":5,
			"componentType":5123,
			"count":12,
			"type":"SCALAR"
		},
		{
			"bufferView":6,
			"componentType":5126,
			"count":24,
			"max":[
				1,
				1,
				1
			],
			"min":[
				-1,
				-1,
				-1
			],
			"type":"VEC3"
		},
		{
			"bufferView":7,
			"componentType":5126,
			"count":24,
			"type":"VEC3"
		},
		{
			"bufferView":8,
			"componentType":5126,
			"count":24,
			"type":"VEC2"
		},
		{
			"bufferView":9,
			"componentType":5123,
			"count":36,
			"type":"SCALAR"
		}
	],
	"bufferViews":[
		{
			"buffer":0,
			"byteLength":5820,
			"byteOffset":0,
			"target":34962
		},
		{
			"buffer":0,
			"byteLength":5820,
			"byteOffset":5820,
			"target":34962
		},
		{
			"buffer":0,
			"byteLength":2562,
			"byteOffset":11640,
			"target":34963
		},
		{
			"buffer":0,
			"byteLength":72,
			"byteOffset":14204,
			"target":34962
		},
		{
			"buffer":0,
			"byteLength":72,
			"byteOffset":14276,
			"target":34962
		},
		{
			"buffer":0,
			"byteLength":24,
			"byteOffset":14348,
			"target":34963
		},
		{
			"buffer":0,
			"byteLength":288,
			"byteOffset":14372,
			"target":34962
		},
		{
			"buffer":0,
			"byteLength":288,
			"byteOffset":14660,
			"target":34962
		},
		{
			"buffer":0,
			"byteLength":192,
			"byteOffset":14948,
			"target":34962
		},
		{
			"buffer":0,
			"byteLength":72,
			"byteOffset":15140,
			"target":34963
		}
	],
	"buffers":[
		{
			"byteLength":15212,
			"uri":"nav3.bin"
		}
	]
}
