{
  "accessors": [
    {
      "bufferView": 2,
      "componentType": 5126,
      "count": 875,
      "max": [
        0.6829929947853088,
        0.6495649814605713,
        11.10738468170166
      ],
      "min": [
        -0.6765679717063904,
        -0.6495649814605713,
        -0.018403999507427216
      ],
      "type": "VEC3"
    },
    {
      "bufferView": 2,
      "byteOffset": 10500,
      "componentType": 5126,
      "count": 875,
      "max": [
        0.9999663829803467,
        0.9998948574066162,
        1.0
      ],
      "min": [
        -0.9999663829803467,
        -0.9998948574066162,
        -1.0
      ],
      "type": "VEC3"
    },
    {
      "bufferView": 1,
      "componentType": 5126,
      "count": 875,
      "max": [
        1.0,
        11.692097663879395
      ],
      "min": [
        0.0,
        -1.4785510301589966
      ],
      "type": "VEC2"
    },
    {
      "bufferView": 0,
      "componentType": 5125,
      "count": 2850,
      "type": "SCALAR"
    }
  ],
  "asset": {
    "extras": {
      "author": "Sluffind (https://sketchfab.com/Sluffind)",
      "license": "CC-BY-4.0 (http://creativecommons.org/licenses/by/4.0/)",
      "source": "https://sketchfab.com/3d-models/basic-streetlantern-73f702e0f8a64c30b487a914d80ac32c",
      "title": "Basic Streetlantern"
    },
    "generator": "Sketchfab-12.65.0",
    "version": "2.0"
  },
  "bufferViews": [
    {
      "buffer": 0,
      "byteLength": 11400,
      "name": "floatBufferViews",
      "target": 34963
    },
    {
      "buffer": 0,
      "byteLength": 7000,
      "byteOffset": 11400,
      "byteStride": 8,
      "name": "floatBufferViews",
      "target": 34962
    },
    {
      "buffer": 0,
      "byteLength": 21000,
      "byteOffset": 18400,
      "byteStride": 12,
      "name": "floatBufferViews",
      "target": 34962
    }
  ],
  "buffers": [
    {
      "byteLength": 39400,
      "uri": "scene.bin"
    }
  ],
  "materials": [
    {
      "doubleSided": true,
      "name": "None",
      "pbrMetallicRoughness": {
        "baseColorFactor": [
          0.16111610572391852,
          0.16111610572391852,
          0.16111610572391852,
          1.0
        ],
        "roughnessFactor": 0.23951981707317074
      }
    }
  ],
  "meshes": [
    {
      "name": "Object_0",
      "primitives": [
        {
          "attributes": {
            "NORMAL": 1,
            "POSITION": 0,
            "TEXCOORD_0": 2
          },
          "indices": 3,
          "material": 0,
          "mode": 4
        }
      ]
    }
  ],
  "nodes": [
    {
      "children": [
        1
      ],
      "matrix": [
        1.0,
        0.0,
        0.0,
        0.0,
        0.0,
        3.828568672208042e-16,
        -1.0,
        0.0,
        0.0,
        1.0,
        3.828568672208042e-16,
        0.0,
        0.0,
        1.979799559101239e-31,
        -8.916224556636612e-16,
        1.0
      ],
      "name": "Sketchfab_model"
    },
    {
      "children": [
        2
      ],
      "name": "28828481f543489d8e43573bebabac44.obj.cleaner.materialmerger.gles"
    },
    {
      "mesh": 0,
      "name": "Object_2"
    }
  ],
  "scene": 0,
  "scenes": [
    {
      "name": "Sketchfab_Scene",
      "nodes": [
        0
      ]
    }
  ]
}
