{
  "asset": {
    "version": "2.0",
    "generator": "Sketchup glTF Exporter v1.2.6 by Centaur"
  },
  "scene": 0,
  "scenes": [
    {
      "nodes": [
        0
      ]
    }
  ],
  "samplers": [
    {
    }
  ],
  "nodes": [
    {
      "name": "root",
      "children": [
        1,
        2
      ],
      "mesh": 2
    },
    {
      "name": "bxg_back.kmz",
      "mesh": 0
    },
    {
      "name": "bxg_main.kmz",
      "mesh": 1
    }
  ],
  "materials": [
    {
      "pbrMetallicRoughness": {
        "baseColorTexture": {
          "index": 0
        },
        "metallicFactor": 0.1,
        "roughnessFactor": 0.9
      },
      "name": "<auto>6",
      "doubleSided": true
    },
    {
      "pbrMetallicRoughness": {
        "baseColorTexture": {
          "index": 1
        },
        "metallicFactor": 0.1,
        "roughnessFactor": 0.9
      },
      "name": "<auto>10",
      "doubleSided": true
    },
    {
      "pbrMetallicRoughness": {
        "baseColorTexture": {
          "index": 2
        },
        "metallicFactor": 0.1,
        "roughnessFactor": 0.9
      },
      "name": "<auto>35",
      "doubleSided": true
    },
    {
      "pbrMetallicRoughness": {
        "baseColorTexture": {
          "index": 3
        },
        "metallicFactor": 0.1,
        "roughnessFactor": 0.9
      },
      "name": "<auto>37",
      "doubleSided": true
    },
    {
      "pbrMetallicRoughness": {
        "baseColorTexture": {
          "index": 4
        },
        "metallicFactor": 0.1,
        "roughnessFactor": 0.9
      },
      "name": "<auto>38",
      "doubleSided": true
    },
    {
      "pbrMetallicRoughness": {
        "baseColorTexture": {
          "index": 5
        },
        "metallicFactor": 0.1,
        "roughnessFactor": 0.9
      },
      "name": "<auto>36",
      "doubleSided": true
    },
    {
      "pbrMetallicRoughness": {
        "baseColorTexture": {
          "index": 6
        },
        "metallicFactor": 0.1,
        "roughnessFactor": 0.9
      },
      "name": "<auto>40",
      "doubleSided": true
    },
    {
      "pbrMetallicRoughness": {
        "baseColorTexture": {
          "index": 7
        },
        "metallicFactor": 0.1,
        "roughnessFactor": 0.9
      },
      "name": "<auto>42",
      "doubleSided": true
    },
    {
      "pbrMetallicRoughness": {
        "baseColorTexture": {
          "index": 8
        },
        "metallicFactor": 0.1,
        "roughnessFactor": 0.9
      },
      "name": "<auto>43",
      "doubleSided": true
    },
    {
      "pbrMetallicRoughness": {
        "baseColorTexture": {
          "index": 9
        },
        "metallicFactor": 0.1,
        "roughnessFactor": 0.9
      },
      "name": "<auto>44",
      "doubleSided": true
    },
    {
      "pbrMetallicRoughness": {
        "baseColorTexture": {
          "index": 10
        },
        "metallicFactor": 0.1,
        "roughnessFactor": 0.9
      },
      "name": "<auto>46",
      "doubleSided": true
    },
    {
      "pbrMetallicRoughness": {
        "baseColorFactor": [
          1.0,
          1.0,
          1.0,
          1.0
        ],
        "metallicFactor": 0.1,
        "roughnessFactor": 0.9
      },
      "name": "<auto>7",
      "doubleSided": true
    },
    {
      "pbrMetallicRoughness": {
        "baseColorTexture": {
          "index": 11
        },
        "metallicFactor": 0.1,
        "roughnessFactor": 0.9
      },
      "name": "<auto>47",
      "doubleSided": true
    },
    {
      "pbrMetallicRoughness": {
        "baseColorTexture": {
          "index": 12
        },
        "metallicFactor": 0.1,
        "roughnessFactor": 0.9
      },
      "name": "<auto>49",
      "doubleSided": true
    },
    {
      "pbrMetallicRoughness": {
        "baseColorTexture": {
          "index": 13
        },
        "metallicFactor": 0.1,
        "roughnessFactor": 0.9
      },
      "name": "<auto>32",
      "doubleSided": true
    }
  ],
  "images": [
    {
      "bufferView": 0,
      "mimeType": "image/jpeg"
    },
    {
      "bufferView": 1,
      "mimeType": "image/jpeg"
    },
    {
      "bufferView": 2,
      "mimeType": "image/jpeg"
    },
    {
      "bufferView": 3,
      "mimeType": "image/jpeg"
    },
    {
      "bufferView": 4,
      "mimeType": "image/jpeg"
    },
    {
      "bufferView": 5,
      "mimeType": "image/jpeg"
    },
    {
      "bufferView": 6,
      "mimeType": "image/jpeg"
    },
    {
      "bufferView": 7,
      "mimeType": "image/jpeg"
    },
    {
      "bufferView": 8,
      "mimeType": "image/jpeg"
    },
    {
      "bufferView": 9,
      "mimeType": "image/jpeg"
    },
    {
      "bufferView": 10,
      "mimeType": "image/jpeg"
    },
    {
      "bufferView": 11,
      "mimeType": "image/jpeg"
    },
    {
      "bufferView": 12,
      "mimeType": "image/png"
    },
    {
      "bufferView": 13,
      "mimeType": "image/jpeg"
    }
  ],
  "textures": [
    {
      "source": 0,
      "sampler": 0
    },
    {
      "source": 1,
      "sampler": 0
    },
    {
      "source": 2,
      "sampler": 0
    },
    {
      "source": 3,
      "sampler": 0
    },
    {
      "source": 4,
      "sampler": 0
    },
    {
      "source": 5,
      "sampler": 0
    },
    {
      "source": 6,
      "sampler": 0
    },
    {
      "source": 7,
      "sampler": 0
    },
    {
      "source": 8,
      "sampler": 0
    },
    {
      "source": 9,
      "sampler": 0
    },
    {
      "source": 10,
      "sampler": 0
    },
    {
      "source": 11,
      "sampler": 0
    },
    {
      "source": 12,
      "sampler": 0
    },
    {
      "source": 13,
      "sampler": 0
    }
  ],
  "meshes": [
    {
      "primitives": [
        {
          "attributes": {
            "POSITION": 2,
            "NORMAL": 3,
            "TEXCOORD_0": 4
          },
          "indices": 5,
          "mode": 4,
          "material": 0
        },
        {
          "attributes": {
            "POSITION": 2,
            "NORMAL": 3,
            "TEXCOORD_0": 4
          },
          "indices": 6,
          "mode": 4,
          "material": 1
        }
      ]
    },
    {
      "primitives": [
        {
          "attributes": {
            "POSITION": 2,
            "NORMAL": 3,
            "TEXCOORD_0": 4
          },
          "indices": 7,
          "mode": 4,
          "material": 2
        },
        {
          "attributes": {
            "POSITION": 2,
            "NORMAL": 3,
            "TEXCOORD_0": 4
          },
          "indices": 8,
          "mode": 4,
          "material": 3
        },
        {
          "attributes": {
            "POSITION": 2,
            "NORMAL": 3,
            "TEXCOORD_0": 4
          },
          "indices": 9,
          "mode": 4,
          "material": 4
        },
        {
          "attributes": {
            "POSITION": 2,
            "NORMAL": 3,
            "TEXCOORD_0": 4
          },
          "indices": 10,
          "mode": 4,
          "material": 5
        },
        {
          "attributes": {
            "POSITION": 2,
            "NORMAL": 3,
            "TEXCOORD_0": 4
          },
          "indices": 11,
          "mode": 4,
          "material": 6
        },
        {
          "attributes": {
            "POSITION": 2,
            "NORMAL": 3,
            "TEXCOORD_0": 4
          },
          "indices": 12,
          "mode": 4,
          "material": 7
        },
        {
          "attributes": {
            "POSITION": 2,
            "NORMAL": 3,
            "TEXCOORD_0": 4
          },
          "indices": 13,
          "mode": 4,
          "material": 8
        },
        {
          "attributes": {
            "POSITION": 2,
            "NORMAL": 3,
            "TEXCOORD_0": 4
          },
          "indices": 14,
          "mode": 4,
          "material": 9
        },
        {
          "attributes": {
            "POSITION": 2,
            "NORMAL": 3,
            "TEXCOORD_0": 4
          },
          "indices": 15,
          "mode": 4,
          "material": 10
        },
        {
          "attributes": {
            "POSITION": 0,
            "NORMAL": 1
          },
          "indices": 16,
          "mode": 4,
          "material": 11
        },
        {
          "attributes": {
            "POSITION": 2,
            "NORMAL": 3,
            "TEXCOORD_0": 4
          },
          "indices": 17,
          "mode": 4,
          "material": 12
        },
        {
          "attributes": {
            "POSITION": 2,
            "NORMAL": 3,
            "TEXCOORD_0": 4
          },
          "indices": 18,
          "mode": 4,
          "material": 13
        }
      ]
    },
    {
      "primitives": [
        {
          "attributes": {
            "POSITION": 2,
            "NORMAL": 3,
            "TEXCOORD_0": 4
          },
          "indices": 19,
          "mode": 4,
          "material": 14
        },
        {
          "attributes": {
            "POSITION": 0,
            "NORMAL": 1
          },
          "indices": 20,
          "mode": 4,
          "material": 11
        }
      ]
    }
  ],
  "accessors": [
    {
      "bufferView": 14,
      "componentType": 5126,
      "count": 77,
      "type": "VEC3",
      "min": [
        -15.509853108497559,
        3.2603844475106456e-15,
        53.246118795732
      ],
      "max": [
        76.5087944515025,
        18.66703404000001,
        75.11759892478922
      ]
    },
    {
      "bufferView": 15,
      "componentType": 5126,
      "count": 77,
      "type": "VEC3",
      "min": [
        -0.991979290809217,
        -1.0,
        -0.9940101343920563
      ],
      "max": [
        1.0,
        1.0,
        0.9835549894364293
      ]
    },
    {
      "bufferView": 16,
      "componentType": 5126,
      "count": 412,
      "type": "VEC3",
      "min": [
        -15.509853108497559,
        -1.9420262498090427e-14,
        53.1518797147649
      ],
      "max": [
        76.5087944515025,
        18.66703404000001,
        77.75731932478924
      ]
    },
    {
      "bufferView": 17,
      "componentType": 5126,
      "count": 412,
      "type": "VEC3",
      "min": [
        -0.997981808942545,
        -1.0,
        -0.9957015533729137
      ],
      "max": [
        0.9999070268538627,
        1.0,
        1.0
      ]
    },
    {
      "bufferView": 18,
      "componentType": 5126,
      "count": 412,
      "type": "VEC2",
      "min": [
        -3038.3220000000015,
        -154.32640000000018
      ],
      "max": [
        2990.8770000000013,
        3863.308000000002
      ]
    },
    {
      "bufferView": 20,
      "componentType": 5123,
      "count": 42,
      "type": "SCALAR"
    },
    {
      "bufferView": 20,
      "componentType": 5123,
      "count": 6,
      "type": "SCALAR",
      "byteOffset": 84
    },
    {
      "bufferView": 20,
      "componentType": 5123,
      "count": 33,
      "type": "SCALAR",
      "byteOffset": 96
    },
    {
      "bufferView": 20,
      "componentType": 5123,
      "count": 24,
      "type": "SCALAR",
      "byteOffset": 162
    },
    {
      "bufferView": 20,
      "componentType": 5123,
      "count": 24,
      "type": "SCALAR",
      "byteOffset": 210
    },
    {
      "bufferView": 20,
      "componentType": 5123,
      "count": 15,
      "type": "SCALAR",
      "byteOffset": 258
    },
    {
      "bufferView": 20,
      "componentType": 5123,
      "count": 12,
      "type": "SCALAR",
      "byteOffset": 288
    },
    {
      "bufferView": 20,
      "componentType": 5123,
      "count": 78,
      "type": "SCALAR",
      "byteOffset": 312
    },
    {
      "bufferView": 20,
      "componentType": 5123,
      "count": 6,
      "type": "SCALAR",
      "byteOffset": 468
    },
    {
      "bufferView": 20,
      "componentType": 5123,
      "count": 207,
      "type": "SCALAR",
      "byteOffset": 480
    },
    {
      "bufferView": 20,
      "componentType": 5123,
      "count": 9,
      "type": "SCALAR",
      "byteOffset": 894
    },
    {
      "bufferView": 19,
      "componentType": 5121,
      "count": 132,
      "type": "SCALAR"
    },
    {
      "bufferView": 20,
      "componentType": 5123,
      "count": 12,
      "type": "SCALAR",
      "byteOffset": 912
    },
    {
      "bufferView": 20,
      "componentType": 5123,
      "count": 12,
      "type": "SCALAR",
      "byteOffset": 936
    },
    {
      "bufferView": 20,
      "componentType": 5123,
      "count": 171,
      "type": "SCALAR",
      "byteOffset": 960
    },
    {
      "bufferView": 19,
      "componentType": 5121,
      "count": 3,
      "type": "SCALAR",
      "byteOffset": 132
    }
  ],
  "bufferViews": [
    {
      "buffer": 0,
      "byteLength": 871
    },
    {
      "buffer": 0,
      "byteOffset": 871,
      "byteLength": 11732
    },
    {
      "buffer": 0,
      "byteOffset": 12603,
      "byteLength": 6683
    },
    {
      "buffer": 0,
      "byteOffset": 19286,
      "byteLength": 31223
    },
    {
      "buffer": 0,
      "byteOffset": 50509,
      "byteLength": 1194
    },
    {
      "buffer": 0,
      "byteOffset": 51703,
      "byteLength": 11711
    },
    {
      "buffer": 0,
      "byteOffset": 63414,
      "byteLength": 9854
    },
    {
      "buffer": 0,
      "byteOffset": 73268,
      "byteLength": 4750
    },
    {
      "buffer": 0,
      "byteOffset": 78018,
      "byteLength": 2146
    },
    {
      "buffer": 0,
      "byteOffset": 80164,
      "byteLength": 2056
    },
    {
      "buffer": 0,
      "byteOffset": 82220,
      "byteLength": 34207
    },
    {
      "buffer": 0,
      "byteOffset": 116427,
      "byteLength": 3064
    },
    {
      "buffer": 0,
      "byteOffset": 119491,
      "byteLength": 14410
    },
    {
      "buffer": 0,
      "byteOffset": 133901,
      "byteLength": 1194
    },
    {
      "buffer": 0,
      "byteOffset": 135096,
      "byteLength": 924,
      "target": 34962,
      "byteStride": 12
    },
    {
      "buffer": 0,
      "byteOffset": 136020,
      "byteLength": 924,
      "target": 34962,
      "byteStride": 12
    },
    {
      "buffer": 0,
      "byteOffset": 136944,
      "byteLength": 4944,
      "target": 34962,
      "byteStride": 12
    },
    {
      "buffer": 0,
      "byteOffset": 141888,
      "byteLength": 4944,
      "target": 34962,
      "byteStride": 12
    },
    {
      "buffer": 0,
      "byteOffset": 146832,
      "byteLength": 3296,
      "target": 34962,
      "byteStride": 8
    },
    {
      "buffer": 0,
      "byteOffset": 150128,
      "byteLength": 135,
      "target": 34963
    },
    {
      "buffer": 0,
      "byteOffset": 150264,
      "byteLength": 1302,
      "target": 34963
    }
  ],
  "buffers": [
    {
      "uri": "data:application/octet-stream;base64,",
      "byteLength": 151566
    }
  ]
}