{
  "asset": {
    "version": "2.0",
    "generator": "Sketchup glTF Exporter v1.2.6 by Centaur"
  },
  "scene": 0,
  "scenes": [
    {
      "nodes": [
        0
      ]
    }
  ],
  "samplers": [
    {
    }
  ],
  "nodes": [
    {
      "name": "root",
      "children": [
        1
      ],
      "mesh": 1
    },
    {
      "name": "Heather",
      "mesh": 0
    }
  ],
  "materials": [
    {
      "pbrMetallicRoughness": {
        "baseColorFactor": [
          0.0254,
          0.0759,
          0.0638,
          1.0
        ],
        "metallicFactor": 0.1,
        "roughnessFactor": 0.9
      },
      "name": "Heather_Shirt",
      "doubleSided": true
    },
    {
      "pbrMetallicRoughness": {
        "baseColorFactor": [
          0.0189,
          0.0759,
          0.187,
          1.0
        ],
        "metallicFactor": 0.1,
        "roughnessFactor": 0.9
      },
      "name": "Heather_PantShadow",
      "doubleSided": true
    },
    {
      "pbrMetallicRoughness": {
        "baseColorFactor": [
          0.2674,
          0.231,
          0.1905,
          1.0
        ],
        "metallicFactor": 0.1,
        "roughnessFactor": 0.9
      },
      "name": "Heather_Band",
      "doubleSided": true
    },
    {
      "pbrMetallicRoughness": {
        "baseColorFactor": [
          0.1193,
          0.1636,
          0.0939,
          1.0
        ],
        "metallicFactor": 0.1,
        "roughnessFactor": 0.9
      },
      "name": "Heather_Stripe1",
      "doubleSided": true
    },
    {
      "pbrMetallicRoughness": {
        "baseColorFactor": [
          0.325,
          0.0802,
          0.1701,
          1.0
        ],
        "metallicFactor": 0.1,
        "roughnessFactor": 0.9
      },
      "name": "Heather_Stripe2",
      "doubleSided": true
    },
    {
      "pbrMetallicRoughness": {
        "baseColorFactor": [
          0.3537,
          0.1734,
          0.021,
          1.0
        ],
        "metallicFactor": 0.1,
        "roughnessFactor": 0.9
      },
      "name": "Heather_Hair"
    },
    {
      "pbrMetallicRoughness": {
        "baseColorFactor": [
          0.009,
          0.009,
          0.009,
          1.0
        ],
        "metallicFactor": 0.1,
        "roughnessFactor": 0.9
      },
      "name": "Heather_Soles",
      "doubleSided": true
    },
    {
      "pbrMetallicRoughness": {
        "baseColorFactor": [
          0.0915,
          0.1801,
          0.2977,
          1.0
        ],
        "metallicFactor": 0.1,
        "roughnessFactor": 0.9
      },
      "name": "Heather_Jeans",
      "doubleSided": true
    },
    {
      "pbrMetallicRoughness": {
        "baseColorFactor": [
          0.3345,
          0.3021,
          0.187,
          1.0
        ],
        "metallicFactor": 0.1,
        "roughnessFactor": 0.9
      },
      "name": "Heather_Hat",
      "doubleSided": true
    },
    {
      "pbrMetallicRoughness": {
        "baseColorFactor": [
          0.1604,
          0.212,
          0.2549,
          1.0
        ],
        "metallicFactor": 0.1,
        "roughnessFactor": 0.9
      },
      "name": "Heather_Cuffs",
      "doubleSided": true
    },
    {
      "pbrMetallicRoughness": {
        "baseColorFactor": [
          0.148,
          0.06,
          0.0528,
          1.0
        ],
        "metallicFactor": 0.1,
        "roughnessFactor": 0.9
      },
      "name": "Heather_Shoes",
      "doubleSided": true
    },
    {
      "pbrMetallicRoughness": {
        "baseColorFactor": [
          0.1247,
          0.0546,
          0.0179,
          1.0
        ],
        "metallicFactor": 0.1,
        "roughnessFactor": 0.9
      },
      "name": "Heather_Brim",
      "doubleSided": true
    },
    {
      "pbrMetallicRoughness": {
        "baseColorFactor": [
          0.3587,
          0.1768,
          0.021,
          1.0
        ],
        "metallicFactor": 0.1,
        "roughnessFactor": 0.9
      },
      "name": "Heather_Hair2",
      "doubleSided": true
    },
    {
      "pbrMetallicRoughness": {
        "baseColorFactor": [
          0.0199,
          0.022,
          0.0119,
          1.0
        ],
        "metallicFactor": 0.1,
        "roughnessFactor": 0.9
      },
      "name": "Heather_ShirtShadow",
      "doubleSided": true
    },
    {
      "pbrMetallicRoughness": {
        "baseColorFactor": [
          0.7893,
          0.3345,
          0.194,
          1.0
        ],
        "metallicFactor": 0.1,
        "roughnessFactor": 0.9
      },
      "name": "Heather_Skin",
      "doubleSided": true
    },
    {
      "pbrMetallicRoughness": {
        "baseColorFactor": [
          0.6121,
          0.3889,
          0.1542,
          1.0
        ],
        "metallicFactor": 0.1,
        "roughnessFactor": 0.9
      },
      "name": "Lily_Blonde",
      "doubleSided": true
    },
    {
      "pbrMetallicRoughness": {
        "baseColorFactor": [
          0.9323,
          0.9323,
          0.5668,
          1.0
        ],
        "metallicFactor": 0.1,
        "roughnessFactor": 0.9
      },
      "name": "Lily_Light",
      "doubleSided": true
    },
    {
      "pbrMetallicRoughness": {
        "baseColorFactor": [
          0.0546,
          0.0189,
          0.0152,
          1.0
        ],
        "metallicFactor": 0.1,
        "roughnessFactor": 0.9
      },
      "name": "Lily_Dark",
      "doubleSided": true
    },
    {
      "pbrMetallicRoughness": {
        "baseColorFactor": [
          0.0638,
          0.0278,
          0.0097,
          1.0
        ],
        "metallicFactor": 0.1,
        "roughnessFactor": 0.9
      },
      "name": "Heather_Brim1",
      "doubleSided": true
    },
    {
      "pbrMetallicRoughness": {
        "baseColorTexture": {
          "index": 0
        },
        "metallicFactor": 0.1,
        "roughnessFactor": 0.9
      },
      "name": "螢幕擷取畫面 2023-07-20 121106"
    },
    {
      "pbrMetallicRoughness": {
        "baseColorTexture": {
          "index": 1
        },
        "metallicFactor": 0.1,
        "roughnessFactor": 0.9
      },
      "name": "螢幕擷取畫面 2023-07-20 115352"
    },
    {
      "pbrMetallicRoughness": {
        "baseColorTexture": {
          "index": 2
        },
        "metallicFactor": 0.1,
        "roughnessFactor": 0.9
      },
      "name": "螢幕擷取畫面 2023-07-20 120145"
    },
    {
      "pbrMetallicRoughness": {
        "baseColorTexture": {
          "index": 3
        },
        "metallicFactor": 0.1,
        "roughnessFactor": 0.9
      },
      "name": "Terrazzo Tile Light"
    },
    {
      "pbrMetallicRoughness": {
        "baseColorTexture": {
          "index": 4
        },
        "metallicFactor": 0.1,
        "roughnessFactor": 0.9
      },
      "name": "螢幕擷取畫面 2023-07-20 142907"
    },
    {
      "pbrMetallicRoughness": {
        "baseColorTexture": {
          "index": 5
        },
        "metallicFactor": 0.1,
        "roughnessFactor": 0.9
      },
      "name": "螢幕擷取畫面 2023-07-20 142035"
    },
    {
      "pbrMetallicRoughness": {
        "baseColorFactor": [
          0.2176,
          0.2176,
          0.2176,
          1.0
        ],
        "metallicFactor": 0.1,
        "roughnessFactor": 0.9
      },
      "name": "default material",
      "doubleSided": true
    },
    {
      "pbrMetallicRoughness": {
        "baseColorTexture": {
          "index": 6
        },
        "metallicFactor": 0.1,
        "roughnessFactor": 0.9
      },
      "name": "Terrazzo Light Blue"
    },
    {
      "pbrMetallicRoughness": {
        "baseColorTexture": {
          "index": 7
        },
        "metallicFactor": 0.1,
        "roughnessFactor": 0.9
      },
      "name": "Formica Speckled Grey"
    }
  ],
  "images": [
    {
      "bufferView": 0,
      "mimeType": "image/png"
    },
    {
      "bufferView": 1,
      "mimeType": "image/png"
    },
    {
      "bufferView": 2,
      "mimeType": "image/png"
    },
    {
      "bufferView": 3,
      "mimeType": "image/jpeg"
    },
    {
      "bufferView": 4,
      "mimeType": "image/png"
    },
    {
      "bufferView": 5,
      "mimeType": "image/png"
    },
    {
      "bufferView": 6,
      "mimeType": "image/jpeg"
    },
    {
      "bufferView": 7,
      "mimeType": "image/jpeg"
    }
  ],
  "textures": [
    {
      "source": 0,
      "sampler": 0
    },
    {
      "source": 1,
      "sampler": 0
    },
    {
      "source": 2,
      "sampler": 0
    },
    {
      "source": 3,
      "sampler": 0
    },
    {
      "source": 4,
      "sampler": 0
    },
    {
      "source": 5,
      "sampler": 0
    },
    {
      "source": 6,
      "sampler": 0
    },
    {
      "source": 7,
      "sampler": 0
    }
  ],
  "meshes": [
    {
      "primitives": [
        {
          "attributes": {
            "POSITION": 0,
            "NORMAL": 1
          },
          "indices": 5,
          "mode": 4,
          "material": 0
        },
        {
          "attributes": {
            "POSITION": 0,
            "NORMAL": 1
          },
          "indices": 6,
          "mode": 4,
          "material": 1
        },
        {
          "attributes": {
            "POSITION": 0,
            "NORMAL": 1
          },
          "indices": 7,
          "mode": 4,
          "material": 2
        },
        {
          "attributes": {
            "POSITION": 0,
            "NORMAL": 1
          },
          "indices": 8,
          "mode": 4,
          "material": 3
        },
        {
          "attributes": {
            "POSITION": 0,
            "NORMAL": 1
          },
          "indices": 9,
          "mode": 4,
          "material": 4
        },
        {
          "attributes": {
            "POSITION": 0,
            "NORMAL": 1
          },
          "indices": 10,
          "mode": 4,
          "material": 5
        },
        {
          "attributes": {
            "POSITION": 0,
            "NORMAL": 1
          },
          "indices": 11,
          "mode": 4,
          "material": 6
        },
        {
          "attributes": {
            "POSITION": 0,
            "NORMAL": 1
          },
          "indices": 12,
          "mode": 4,
          "material": 7
        },
        {
          "attributes": {
            "POSITION": 0,
            "NORMAL": 1
          },
          "indices": 13,
          "mode": 4,
          "material": 8
        },
        {
          "attributes": {
            "POSITION": 0,
            "NORMAL": 1
          },
          "indices": 14,
          "mode": 4,
          "material": 9
        },
        {
          "attributes": {
            "POSITION": 0,
            "NORMAL": 1
          },
          "indices": 15,
          "mode": 4,
          "material": 10
        },
        {
          "attributes": {
            "POSITION": 0,
            "NORMAL": 1
          },
          "indices": 16,
          "mode": 4,
          "material": 11
        },
        {
          "attributes": {
            "POSITION": 0,
            "NORMAL": 1
          },
          "indices": 17,
          "mode": 4,
          "material": 12
        },
        {
          "attributes": {
            "POSITION": 0,
            "NORMAL": 1
          },
          "indices": 18,
          "mode": 4,
          "material": 13
        },
        {
          "attributes": {
            "POSITION": 0,
            "NORMAL": 1
          },
          "indices": 19,
          "mode": 4,
          "material": 14
        },
        {
          "attributes": {
            "POSITION": 0,
            "NORMAL": 1
          },
          "indices": 20,
          "mode": 4,
          "material": 15
        },
        {
          "attributes": {
            "POSITION": 0,
            "NORMAL": 1
          },
          "indices": 21,
          "mode": 4,
          "material": 16
        },
        {
          "attributes": {
            "POSITION": 0,
            "NORMAL": 1
          },
          "indices": 22,
          "mode": 4,
          "material": 17
        },
        {
          "attributes": {
            "POSITION": 0,
            "NORMAL": 1
          },
          "indices": 23,
          "mode": 4,
          "material": 18
        }
      ]
    },
    {
      "primitives": [
        {
          "attributes": {
            "POSITION": 2,
            "NORMAL": 3,
            "TEXCOORD_0": 4
          },
          "indices": 24,
          "mode": 4,
          "material": 19
        },
        {
          "attributes": {
            "POSITION": 2,
            "NORMAL": 3,
            "TEXCOORD_0": 4
          },
          "indices": 25,
          "mode": 4,
          "material": 20
        },
        {
          "attributes": {
            "POSITION": 2,
            "NORMAL": 3,
            "TEXCOORD_0": 4
          },
          "indices": 26,
          "mode": 4,
          "material": 21
        },
        {
          "attributes": {
            "POSITION": 2,
            "NORMAL": 3,
            "TEXCOORD_0": 4
          },
          "indices": 27,
          "mode": 4,
          "material": 22
        },
        {
          "attributes": {
            "POSITION": 2,
            "NORMAL": 3,
            "TEXCOORD_0": 4
          },
          "indices": 28,
          "mode": 4,
          "material": 23
        },
        {
          "attributes": {
            "POSITION": 2,
            "NORMAL": 3,
            "TEXCOORD_0": 4
          },
          "indices": 29,
          "mode": 4,
          "material": 24
        },
        {
          "attributes": {
            "POSITION": 0,
            "NORMAL": 1
          },
          "indices": 30,
          "mode": 4,
          "material": 25
        },
        {
          "attributes": {
            "POSITION": 2,
            "NORMAL": 3,
            "TEXCOORD_0": 4
          },
          "indices": 31,
          "mode": 4,
          "material": 26
        },
        {
          "attributes": {
            "POSITION": 2,
            "NORMAL": 3,
            "TEXCOORD_0": 4
          },
          "indices": 32,
          "mode": 4,
          "material": 27
        }
      ]
    }
  ],
  "accessors": [
    {
      "bufferView": 8,
      "componentType": 5126,
      "count": 1492,
      "type": "VEC3",
      "min": [
        -28.323612363444237,
        -0.02236784740741855,
        -154.1362887026697
      ],
      "max": [
        99.49034816577438,
        3.8699999999999943,
        0.7599639333853405
      ]
    },
    {
      "bufferView": 9,
      "componentType": 5126,
      "count": 1492,
      "type": "VEC3",
      "min": [
        -0.9953190060897509,
        -1.0,
        -0.9997268236730009
      ],
      "max": [
        0.11307486090723576,
        5.1435975589191614e-11,
        0.9953190060897507
      ]
    },
    {
      "bufferView": 10,
      "componentType": 5126,
      "count": 278,
      "type": "VEC3",
      "min": [
        -28.323612363444237,
        -9.438125629608842e-15,
        -154.1362887026697
      ],
      "max": [
        99.49034816577438,
        14.569999999999995,
        -120.30168628649412
      ]
    },
    {
      "bufferView": 11,
      "componentType": 5126,
      "count": 278,
      "type": "VEC3",
      "min": [
        -0.9963939490180851,
        -0.0015595517214964756,
        -0.9987837683506313
      ],
      "max": [
        0.999781771986053,
        1.0,
        0.9999068285261639
      ]
    },
    {
      "bufferView": 12,
      "componentType": 5126,
      "count": 278,
      "type": "VEC2",
      "min": [
        -456.4226511692437,
        -416.6810321702077
      ],
      "max": [
        455.86305818268016,
        1.077273888296193
      ]
    },
    {
      "bufferView": 13,
      "componentType": 5123,
      "count": 489,
      "type": "SCALAR"
    },
    {
      "bufferView": 13,
      "componentType": 5123,
      "count": 48,
      "type": "SCALAR",
      "byteOffset": 978
    },
    {
      "bufferView": 13,
      "componentType": 5123,
      "count": 258,
      "type": "SCALAR",
      "byteOffset": 1074
    },
    {
      "bufferView": 13,
      "componentType": 5123,
      "count": 117,
      "type": "SCALAR",
      "byteOffset": 1590
    },
    {
      "bufferView": 13,
      "componentType": 5123,
      "count": 117,
      "type": "SCALAR",
      "byteOffset": 1824
    },
    {
      "bufferView": 13,
      "componentType": 5123,
      "count": 21,
      "type": "SCALAR",
      "byteOffset": 2058
    },
    {
      "bufferView": 13,
      "componentType": 5123,
      "count": 177,
      "type": "SCALAR",
      "byteOffset": 2100
    },
    {
      "bufferView": 13,
      "componentType": 5123,
      "count": 306,
      "type": "SCALAR",
      "byteOffset": 2454
    },
    {
      "bufferView": 13,
      "componentType": 5123,
      "count": 63,
      "type": "SCALAR",
      "byteOffset": 3066
    },
    {
      "bufferView": 13,
      "componentType": 5123,
      "count": 108,
      "type": "SCALAR",
      "byteOffset": 3192
    },
    {
      "bufferView": 13,
      "componentType": 5123,
      "count": 357,
      "type": "SCALAR",
      "byteOffset": 3408
    },
    {
      "bufferView": 13,
      "componentType": 5123,
      "count": 57,
      "type": "SCALAR",
      "byteOffset": 4122
    },
    {
      "bufferView": 13,
      "componentType": 5123,
      "count": 150,
      "type": "SCALAR",
      "byteOffset": 4236
    },
    {
      "bufferView": 13,
      "componentType": 5123,
      "count": 21,
      "type": "SCALAR",
      "byteOffset": 4536
    },
    {
      "bufferView": 13,
      "componentType": 5123,
      "count": 339,
      "type": "SCALAR",
      "byteOffset": 4578
    },
    {
      "bufferView": 13,
      "componentType": 5123,
      "count": 216,
      "type": "SCALAR",
      "byteOffset": 5256
    },
    {
      "bufferView": 13,
      "componentType": 5123,
      "count": 354,
      "type": "SCALAR",
      "byteOffset": 5688
    },
    {
      "bufferView": 13,
      "componentType": 5123,
      "count": 390,
      "type": "SCALAR",
      "byteOffset": 6396
    },
    {
      "bufferView": 13,
      "componentType": 5123,
      "count": 63,
      "type": "SCALAR",
      "byteOffset": 7176
    },
    {
      "bufferView": 14,
      "componentType": 5123,
      "count": 60,
      "type": "SCALAR"
    },
    {
      "bufferView": 14,
      "componentType": 5123,
      "count": 12,
      "type": "SCALAR",
      "byteOffset": 120
    },
    {
      "bufferView": 14,
      "componentType": 5123,
      "count": 6,
      "type": "SCALAR",
      "byteOffset": 144
    },
    {
      "bufferView": 14,
      "componentType": 5123,
      "count": 72,
      "type": "SCALAR",
      "byteOffset": 156
    },
    {
      "bufferView": 14,
      "componentType": 5123,
      "count": 114,
      "type": "SCALAR",
      "byteOffset": 300
    },
    {
      "bufferView": 14,
      "componentType": 5123,
      "count": 6,
      "type": "SCALAR",
      "byteOffset": 528
    },
    {
      "bufferView": 13,
      "componentType": 5123,
      "count": 222,
      "type": "SCALAR",
      "byteOffset": 7302
    },
    {
      "bufferView": 14,
      "componentType": 5123,
      "count": 84,
      "type": "SCALAR",
      "byteOffset": 540
    },
    {
      "bufferView": 14,
      "componentType": 5123,
      "count": 126,
      "type": "SCALAR",
      "byteOffset": 708
    }
  ],
  "bufferViews": [
    {
      "buffer": 0,
      "byteLength": 723562
    },
    {
      "buffer": 0,
      "byteOffset": 723562,
      "byteLength": 510214
    },
    {
      "buffer": 0,
      "byteOffset": 1233776,
      "byteLength": 115369
    },
    {
      "buffer": 0,
      "byteOffset": 1349145,
      "byteLength": 22515
    },
    {
      "buffer": 0,
      "byteOffset": 1371660,
      "byteLength": 244211
    },
    {
      "buffer": 0,
      "byteOffset": 1615871,
      "byteLength": 94585
    },
    {
      "buffer": 0,
      "byteOffset": 1710456,
      "byteLength": 91408
    },
    {
      "buffer": 0,
      "byteOffset": 1801864,
      "byteLength": 57036
    },
    {
      "buffer": 0,
      "byteOffset": 1858908,
      "byteLength": 17904,
      "target": 34962,
      "byteStride": 12
    },
    {
      "buffer": 0,
      "byteOffset": 1876812,
      "byteLength": 17904,
      "target": 34962,
      "byteStride": 12
    },
    {
      "buffer": 0,
      "byteOffset": 1894716,
      "byteLength": 3336,
      "target": 34962,
      "byteStride": 12
    },
    {
      "buffer": 0,
      "byteOffset": 1898052,
      "byteLength": 3336,
      "target": 34962,
      "byteStride": 12
    },
    {
      "buffer": 0,
      "byteOffset": 1901392,
      "byteLength": 2224,
      "target": 34962,
      "byteStride": 8
    },
    {
      "buffer": 0,
      "byteOffset": 1903616,
      "byteLength": 7746,
      "target": 34963
    },
    {
      "buffer": 0,
      "byteOffset": 1911362,
      "byteLength": 960,
      "target": 34963
    }
  ],
  "buffers": [
    {
      "uri": "data:application/octet-stream;base64,",
      "byteLength": 1912322
    }
  ]
}