{
  "asset": {
    "version": "2.0",
    "generator": "Sketchup glTF Exporter v1.2.6 by Centaur"
  },
  "scene": 0,
  "scenes": [
    {
      "nodes": [
        0
      ]
    }
  ],
  "samplers": [
    {
    }
  ],
  "nodes": [
    {
      "name": "root",
      "children": [
        1
      ]
    },
    {
      "name": "gzt.kmz",
      "children": [
        2
      ]
    },
    {
      "name": "Component#1",
      "mesh": 0
    }
  ],
  "materials": [
    {
      "pbrMetallicRoughness": {
        "baseColorTexture": {
          "index": 0
        },
        "metallicFactor": 0.1,
        "roughnessFactor": 0.9
      },
      "name": "<auto>77",
      "doubleSided": true
    },
    {
      "pbrMetallicRoughness": {
        "baseColorTexture": {
          "index": 1
        },
        "metallicFactor": 0.1,
        "roughnessFactor": 0.9
      },
      "name": "<auto>78",
      "doubleSided": true
    },
    {
      "pbrMetallicRoughness": {
        "baseColorTexture": {
          "index": 2
        },
        "metallicFactor": 0.1,
        "roughnessFactor": 0.9
      },
      "name": "<auto>79",
      "doubleSided": true
    },
    {
      "pbrMetallicRoughness": {
        "baseColorFactor": [
          1.0,
          0.8277,
          0.4995,
          1.0
        ],
        "metallicFactor": 0.1,
        "roughnessFactor": 0.9
      },
      "name": "<auto>1",
      "doubleSided": true
    },
    {
      "pbrMetallicRoughness": {
        "baseColorFactor": [
          1.0,
          1.0,
          1.0,
          1.0
        ],
        "metallicFactor": 0.1,
        "roughnessFactor": 0.9
      },
      "name": "<auto>7",
      "doubleSided": true
    },
    {
      "pbrMetallicRoughness": {
        "baseColorTexture": {
          "index": 3
        },
        "metallicFactor": 0.1,
        "roughnessFactor": 0.9
      },
      "name": "<auto>80",
      "doubleSided": true
    },
    {
      "pbrMetallicRoughness": {
        "baseColorTexture": {
          "index": 4
        },
        "metallicFactor": 0.1,
        "roughnessFactor": 0.9
      },
      "name": "<auto>81",
      "doubleSided": true
    },
    {
      "pbrMetallicRoughness": {
        "baseColorTexture": {
          "index": 5
        },
        "metallicFactor": 0.1,
        "roughnessFactor": 0.9
      },
      "name": "<auto>82",
      "doubleSided": true
    },
    {
      "pbrMetallicRoughness": {
        "baseColorTexture": {
          "index": 6
        },
        "metallicFactor": 0.1,
        "roughnessFactor": 0.9
      },
      "name": "<auto>83",
      "doubleSided": true
    }
  ],
  "images": [
    {
      "bufferView": 0,
      "mimeType": "image/png"
    },
    {
      "bufferView": 1,
      "mimeType": "image/jpeg"
    },
    {
      "bufferView": 2,
      "mimeType": "image/jpeg"
    },
    {
      "bufferView": 3,
      "mimeType": "image/jpeg"
    },
    {
      "bufferView": 4,
      "mimeType": "image/png"
    },
    {
      "bufferView": 5,
      "mimeType": "image/jpeg"
    },
    {
      "bufferView": 6,
      "mimeType": "image/png"
    }
  ],
  "textures": [
    {
      "source": 0,
      "sampler": 0
    },
    {
      "source": 1,
      "sampler": 0
    },
    {
      "source": 2,
      "sampler": 0
    },
    {
      "source": 3,
      "sampler": 0
    },
    {
      "source": 4,
      "sampler": 0
    },
    {
      "source": 5,
      "sampler": 0
    },
    {
      "source": 6,
      "sampler": 0
    }
  ],
  "meshes": [
    {
      "primitives": [
        {
          "attributes": {
            "POSITION": 2,
            "NORMAL": 3,
            "TEXCOORD_0": 4
          },
          "indices": 5,
          "mode": 4,
          "material": 0
        },
        {
          "attributes": {
            "POSITION": 2,
            "NORMAL": 3,
            "TEXCOORD_0": 4
          },
          "indices": 6,
          "mode": 4,
          "material": 1
        },
        {
          "attributes": {
            "POSITION": 2,
            "NORMAL": 3,
            "TEXCOORD_0": 4
          },
          "indices": 7,
          "mode": 4,
          "material": 2
        },
        {
          "attributes": {
            "POSITION": 0,
            "NORMAL": 1
          },
          "indices": 8,
          "mode": 4,
          "material": 3
        },
        {
          "attributes": {
            "POSITION": 0,
            "NORMAL": 1
          },
          "indices": 9,
          "mode": 4,
          "material": 4
        },
        {
          "attributes": {
            "POSITION": 2,
            "NORMAL": 3,
            "TEXCOORD_0": 4
          },
          "indices": 10,
          "mode": 4,
          "material": 5
        },
        {
          "attributes": {
            "POSITION": 2,
            "NORMAL": 3,
            "TEXCOORD_0": 4
          },
          "indices": 11,
          "mode": 4,
          "material": 6
        },
        {
          "attributes": {
            "POSITION": 2,
            "NORMAL": 3,
            "TEXCOORD_0": 4
          },
          "indices": 12,
          "mode": 4,
          "material": 7
        },
        {
          "attributes": {
            "POSITION": 2,
            "NORMAL": 3,
            "TEXCOORD_0": 4
          },
          "indices": 13,
          "mode": 4,
          "material": 8
        }
      ]
    }
  ],
  "accessors": [
    {
      "bufferView": 7,
      "componentType": 5126,
      "count": 70,
      "type": "VEC3",
      "min": [
        16.551935399999994,
        -1.7999999556455097e-05,
        26.596035200000014
      ],
      "max": [
        41.77454180000001,
        5.881215060000006,
        62.318265000000025
      ]
    },
    {
      "bufferView": 8,
      "componentType": 5126,
      "count": 70,
      "type": "VEC3",
      "min": [
        -0.09341151119256066,
        -0.9999999999999962,
        -4.793066630085619e-05
      ],
      "max": [
        1.6331399745326525e-06,
        1.0,
        0.99563752146846
      ]
    },
    {
      "bufferView": 9,
      "componentType": 5126,
      "count": 1056,
      "type": "VEC3",
      "min": [
        16.551935399999994,
        -1.7999999556455097e-05,
        26.596035200000014
      ],
      "max": [
        41.77454180000001,
        15.22401578000001,
        62.365483600000026
      ]
    },
    {
      "bufferView": 10,
      "componentType": 5126,
      "count": 1056,
      "type": "VEC3",
      "min": [
        -1.0,
        -1.0,
        -1.0
      ],
      "max": [
        1.0,
        1.0,
        0.9970862728559603
      ]
    },
    {
      "bufferView": 11,
      "componentType": 5126,
      "count": 1056,
      "type": "VEC2",
      "min": [
        -968.6026000000005,
        -79.2177300000001
      ],
      "max": [
        1285.034984565407,
        2427.587000000001
      ]
    },
    {
      "bufferView": 13,
      "componentType": 5123,
      "count": 1377,
      "type": "SCALAR"
    },
    {
      "bufferView": 13,
      "componentType": 5123,
      "count": 33,
      "type": "SCALAR",
      "byteOffset": 2754
    },
    {
      "bufferView": 13,
      "componentType": 5123,
      "count": 30,
      "type": "SCALAR",
      "byteOffset": 2820
    },
    {
      "bufferView": 12,
      "componentType": 5121,
      "count": 72,
      "type": "SCALAR"
    },
    {
      "bufferView": 12,
      "componentType": 5121,
      "count": 51,
      "type": "SCALAR",
      "byteOffset": 72
    },
    {
      "bufferView": 13,
      "componentType": 5123,
      "count": 273,
      "type": "SCALAR",
      "byteOffset": 2880
    },
    {
      "bufferView": 13,
      "componentType": 5123,
      "count": 168,
      "type": "SCALAR",
      "byteOffset": 3426
    },
    {
      "bufferView": 13,
      "componentType": 5123,
      "count": 66,
      "type": "SCALAR",
      "byteOffset": 3762
    },
    {
      "bufferView": 13,
      "componentType": 5123,
      "count": 6,
      "type": "SCALAR",
      "byteOffset": 3894
    }
  ],
  "bufferViews": [
    {
      "buffer": 0,
      "byteLength": 84274
    },
    {
      "buffer": 0,
      "byteOffset": 84274,
      "byteLength": 6518
    },
    {
      "buffer": 0,
      "byteOffset": 90792,
      "byteLength": 13915
    },
    {
      "buffer": 0,
      "byteOffset": 104707,
      "byteLength": 8264
    },
    {
      "buffer": 0,
      "byteOffset": 112971,
      "byteLength": 45918
    },
    {
      "buffer": 0,
      "byteOffset": 158889,
      "byteLength": 26358
    },
    {
      "buffer": 0,
      "byteOffset": 185247,
      "byteLength": 596207
    },
    {
      "buffer": 0,
      "byteOffset": 781464,
      "byteLength": 840,
      "target": 34962,
      "byteStride": 12
    },
    {
      "buffer": 0,
      "byteOffset": 782304,
      "byteLength": 840,
      "target": 34962,
      "byteStride": 12
    },
    {
      "buffer": 0,
      "byteOffset": 783144,
      "byteLength": 12672,
      "target": 34962,
      "byteStride": 12
    },
    {
      "buffer": 0,
      "byteOffset": 795816,
      "byteLength": 12672,
      "target": 34962,
      "byteStride": 12
    },
    {
      "buffer": 0,
      "byteOffset": 808488,
      "byteLength": 8448,
      "target": 34962,
      "byteStride": 8
    },
    {
      "buffer": 0,
      "byteOffset": 816936,
      "byteLength": 123,
      "target": 34963
    },
    {
      "buffer": 0,
      "byteOffset": 817060,
      "byteLength": 3906,
      "target": 34963
    }
  ],
  "buffers": [
    {
      "uri": "data:application/octet-stream;base64,",
      "byteLength": 820966
    }
  ]
}