{
  "asset": {
    "version": "2.0",
    "generator": "Sketchup glTF Exporter v1.2.6 by Centaur"
  },
  "scene": 0,
  "scenes": [
    {
      "nodes": [
        0
      ]
    }
  ],
  "samplers": [
    {
    }
  ],
  "nodes": [
    {
      "name": "root",
      "children": [
        1
      ]
    },
    {
      "name": "hssg.kmz#1",
      "mesh": 0
    }
  ],
  "materials": [
    {
      "pbrMetallicRoughness": {
        "baseColorFactor": [
          1.0,
          0.8277,
          0.4995,
          1.0
        ],
        "metallicFactor": 0.1,
        "roughnessFactor": 0.9
      },
      "name": "<auto>1",
      "doubleSided": true
    },
    {
      "pbrMetallicRoughness": {
        "baseColorTexture": {
          "index": 0
        },
        "metallicFactor": 0.1,
        "roughnessFactor": 0.9
      },
      "name": "<auto>85",
      "doubleSided": true
    },
    {
      "pbrMetallicRoughness": {
        "baseColorTexture": {
          "index": 1
        },
        "metallicFactor": 0.1,
        "roughnessFactor": 0.9
      },
      "name": "<auto>86",
      "doubleSided": true
    },
    {
      "pbrMetallicRoughness": {
        "baseColorTexture": {
          "index": 2
        },
        "metallicFactor": 0.1,
        "roughnessFactor": 0.9
      },
      "name": "<auto>87",
      "doubleSided": true
    },
    {
      "pbrMetallicRoughness": {
        "baseColorTexture": {
          "index": 3
        },
        "metallicFactor": 0.1,
        "roughnessFactor": 0.9
      },
      "name": "<auto>88",
      "doubleSided": true
    },
    {
      "pbrMetallicRoughness": {
        "baseColorFactor": [
          1.0,
          1.0,
          1.0,
          1.0
        ],
        "metallicFactor": 0.1,
        "roughnessFactor": 0.9
      },
      "name": "<auto>7",
      "doubleSided": true
    },
    {
      "pbrMetallicRoughness": {
        "baseColorTexture": {
          "index": 4
        },
        "metallicFactor": 0.1,
        "roughnessFactor": 0.9
      },
      "name": "<auto>89",
      "doubleSided": true
    },
    {
      "pbrMetallicRoughness": {
        "baseColorTexture": {
          "index": 5
        },
        "metallicFactor": 0.1,
        "roughnessFactor": 0.9
      },
      "name": "<auto>90",
      "doubleSided": true
    },
    {
      "pbrMetallicRoughness": {
        "baseColorTexture": {
          "index": 6
        },
        "metallicFactor": 0.1,
        "roughnessFactor": 0.9
      },
      "name": "<auto>84",
      "doubleSided": true
    },
    {
      "pbrMetallicRoughness": {
        "baseColorTexture": {
          "index": 7
        },
        "metallicFactor": 0.1,
        "roughnessFactor": 0.9
      },
      "name": "<auto>91",
      "doubleSided": true
    }
  ],
  "images": [
    {
      "bufferView": 0,
      "mimeType": "image/png"
    },
    {
      "bufferView": 1,
      "mimeType": "image/jpeg"
    },
    {
      "bufferView": 2,
      "mimeType": "image/png"
    },
    {
      "bufferView": 3,
      "mimeType": "image/jpeg"
    },
    {
      "bufferView": 4,
      "mimeType": "image/png"
    },
    {
      "bufferView": 5,
      "mimeType": "image/jpeg"
    },
    {
      "bufferView": 6,
      "mimeType": "image/jpeg"
    },
    {
      "bufferView": 7,
      "mimeType": "image/png"
    }
  ],
  "textures": [
    {
      "source": 0,
      "sampler": 0
    },
    {
      "source": 1,
      "sampler": 0
    },
    {
      "source": 2,
      "sampler": 0
    },
    {
      "source": 3,
      "sampler": 0
    },
    {
      "source": 4,
      "sampler": 0
    },
    {
      "source": 5,
      "sampler": 0
    },
    {
      "source": 6,
      "sampler": 0
    },
    {
      "source": 7,
      "sampler": 0
    }
  ],
  "meshes": [
    {
      "primitives": [
        {
          "attributes": {
            "POSITION": 0,
            "NORMAL": 1
          },
          "indices": 5,
          "mode": 4,
          "material": 0
        },
        {
          "attributes": {
            "POSITION": 2,
            "NORMAL": 3,
            "TEXCOORD_0": 4
          },
          "indices": 6,
          "mode": 4,
          "material": 1
        },
        {
          "attributes": {
            "POSITION": 2,
            "NORMAL": 3,
            "TEXCOORD_0": 4
          },
          "indices": 7,
          "mode": 4,
          "material": 2
        },
        {
          "attributes": {
            "POSITION": 2,
            "NORMAL": 3,
            "TEXCOORD_0": 4
          },
          "indices": 8,
          "mode": 4,
          "material": 3
        },
        {
          "attributes": {
            "POSITION": 2,
            "NORMAL": 3,
            "TEXCOORD_0": 4
          },
          "indices": 9,
          "mode": 4,
          "material": 4
        },
        {
          "attributes": {
            "POSITION": 0,
            "NORMAL": 1
          },
          "indices": 10,
          "mode": 4,
          "material": 5
        },
        {
          "attributes": {
            "POSITION": 2,
            "NORMAL": 3,
            "TEXCOORD_0": 4
          },
          "indices": 11,
          "mode": 4,
          "material": 6
        },
        {
          "attributes": {
            "POSITION": 2,
            "NORMAL": 3,
            "TEXCOORD_0": 4
          },
          "indices": 12,
          "mode": 4,
          "material": 7
        },
        {
          "attributes": {
            "POSITION": 2,
            "NORMAL": 3,
            "TEXCOORD_0": 4
          },
          "indices": 13,
          "mode": 4,
          "material": 8
        },
        {
          "attributes": {
            "POSITION": 2,
            "NORMAL": 3,
            "TEXCOORD_0": 4
          },
          "indices": 14,
          "mode": 4,
          "material": 9
        }
      ]
    }
  ],
  "accessors": [
    {
      "bufferView": 8,
      "componentType": 5126,
      "count": 95,
      "type": "VEC3",
      "min": [
        -3.373285099999979,
        -6.387297935204794e-15,
        -104.31249140000004
      ],
      "max": [
        93.98591820000007,
        14.949794840000003,
        -41.130601
      ]
    },
    {
      "bufferView": 9,
      "componentType": 5126,
      "count": 95,
      "type": "VEC3",
      "min": [
        -0.9953932826085963,
        -1.0,
        -0.9971069122914862
      ],
      "max": [
        0.9960048395396405,
        1.0,
        0.9951520307034517
      ]
    },
    {
      "bufferView": 10,
      "componentType": 5126,
      "count": 392,
      "type": "VEC3",
      "min": [
        -6.375819099999992,
        -0.026352195200006027,
        -104.31249140000004
      ],
      "max": [
        93.98591820000007,
        15.07094522,
        -33.023403599999995
      ]
    },
    {
      "bufferView": 11,
      "componentType": 5126,
      "count": 392,
      "type": "VEC3",
      "min": [
        -0.9984726004230149,
        -1.0,
        -0.9975316542483357
      ],
      "max": [
        0.9978624983871094,
        1.0,
        0.999125255521361
      ]
    },
    {
      "bufferView": 12,
      "componentType": 5126,
      "count": 392,
      "type": "VEC2",
      "min": [
        -3308.1140000000014,
        -3818.011000000002
      ],
      "max": [
        3353.584000000001,
        171.1414
      ]
    },
    {
      "bufferView": 13,
      "componentType": 5121,
      "count": 150,
      "type": "SCALAR"
    },
    {
      "bufferView": 14,
      "componentType": 5123,
      "count": 66,
      "type": "SCALAR"
    },
    {
      "bufferView": 14,
      "componentType": 5123,
      "count": 114,
      "type": "SCALAR",
      "byteOffset": 132
    },
    {
      "bufferView": 14,
      "componentType": 5123,
      "count": 57,
      "type": "SCALAR",
      "byteOffset": 360
    },
    {
      "bufferView": 14,
      "componentType": 5123,
      "count": 177,
      "type": "SCALAR",
      "byteOffset": 474
    },
    {
      "bufferView": 13,
      "componentType": 5121,
      "count": 60,
      "type": "SCALAR",
      "byteOffset": 150
    },
    {
      "bufferView": 14,
      "componentType": 5123,
      "count": 78,
      "type": "SCALAR",
      "byteOffset": 828
    },
    {
      "bufferView": 14,
      "componentType": 5123,
      "count": 6,
      "type": "SCALAR",
      "byteOffset": 984
    },
    {
      "bufferView": 14,
      "componentType": 5123,
      "count": 108,
      "type": "SCALAR",
      "byteOffset": 996
    },
    {
      "bufferView": 14,
      "componentType": 5123,
      "count": 6,
      "type": "SCALAR",
      "byteOffset": 1212
    }
  ],
  "bufferViews": [
    {
      "buffer": 0,
      "byteLength": 45850
    },
    {
      "buffer": 0,
      "byteOffset": 45850,
      "byteLength": 13915
    },
    {
      "buffer": 0,
      "byteOffset": 59765,
      "byteLength": 103883
    },
    {
      "buffer": 0,
      "byteOffset": 163648,
      "byteLength": 6518
    },
    {
      "buffer": 0,
      "byteOffset": 170166,
      "byteLength": 145967
    },
    {
      "buffer": 0,
      "byteOffset": 316133,
      "byteLength": 2508
    },
    {
      "buffer": 0,
      "byteOffset": 318641,
      "byteLength": 13915
    },
    {
      "buffer": 0,
      "byteOffset": 332556,
      "byteLength": 228913
    },
    {
      "buffer": 0,
      "byteOffset": 561480,
      "byteLength": 1140,
      "target": 34962,
      "byteStride": 12
    },
    {
      "buffer": 0,
      "byteOffset": 562620,
      "byteLength": 1140,
      "target": 34962,
      "byteStride": 12
    },
    {
      "buffer": 0,
      "byteOffset": 563760,
      "byteLength": 4704,
      "target": 34962,
      "byteStride": 12
    },
    {
      "buffer": 0,
      "byteOffset": 568464,
      "byteLength": 4704,
      "target": 34962,
      "byteStride": 12
    },
    {
      "buffer": 0,
      "byteOffset": 573168,
      "byteLength": 3136,
      "target": 34962,
      "byteStride": 8
    },
    {
      "buffer": 0,
      "byteOffset": 576304,
      "byteLength": 210,
      "target": 34963
    },
    {
      "buffer": 0,
      "byteOffset": 576514,
      "byteLength": 1224,
      "target": 34963
    }
  ],
  "buffers": [
    {
      "uri": "data:application/octet-stream;base64,",
      "byteLength": 577738
    }
  ]
}