{
  "asset": {
    "version": "2.0",
    "generator": "Sketchup glTF Exporter v1.2.6 by Centaur"
  },
  "scene": 0,
  "scenes": [
    {
      "nodes": [
        0
      ]
    }
  ],
  "samplers": [
    {
    }
  ],
  "nodes": [
    {
      "name": "root",
      "children": [
        1
      ]
    },
    {
      "name": "lhsydl.kmz",
      "mesh": 0
    }
  ],
  "materials": [
    {
      "pbrMetallicRoughness": {
        "baseColorTexture": {
          "index": 0
        },
        "metallicFactor": 0.1,
        "roughnessFactor": 0.9
      },
      "name": "<auto>92",
      "doubleSided": true
    },
    {
      "pbrMetallicRoughness": {
        "baseColorTexture": {
          "index": 1
        },
        "metallicFactor": 0.1,
        "roughnessFactor": 0.9
      },
      "name": "<auto>93",
      "doubleSided": true
    },
    {
      "pbrMetallicRoughness": {
        "baseColorTexture": {
          "index": 2
        },
        "metallicFactor": 0.1,
        "roughnessFactor": 0.9
      },
      "name": "<auto>94",
      "doubleSided": true
    },
    {
      "pbrMetallicRoughness": {
        "baseColorFactor": [
          1.0,
          0.8277,
          0.4995,
          1.0
        ],
        "metallicFactor": 0.1,
        "roughnessFactor": 0.9
      },
      "name": "<auto>1",
      "doubleSided": true
    },
    {
      "pbrMetallicRoughness": {
        "baseColorTexture": {
          "index": 3
        },
        "metallicFactor": 0.1,
        "roughnessFactor": 0.9
      },
      "name": "<auto>95",
      "doubleSided": true
    },
    {
      "pbrMetallicRoughness": {
        "baseColorTexture": {
          "index": 4
        },
        "metallicFactor": 0.1,
        "roughnessFactor": 0.9
      },
      "name": "<auto>96",
      "doubleSided": true
    },
    {
      "pbrMetallicRoughness": {
        "baseColorFactor": [
          1.0,
          1.0,
          1.0,
          1.0
        ],
        "metallicFactor": 0.1,
        "roughnessFactor": 0.9
      },
      "name": "<auto>7",
      "doubleSided": true
    },
    {
      "pbrMetallicRoughness": {
        "baseColorTexture": {
          "index": 5
        },
        "metallicFactor": 0.1,
        "roughnessFactor": 0.9
      },
      "name": "<auto>97",
      "doubleSided": true
    },
    {
      "pbrMetallicRoughness": {
        "baseColorTexture": {
          "index": 6
        },
        "metallicFactor": 0.1,
        "roughnessFactor": 0.9
      },
      "name": "<auto>98",
      "doubleSided": true
    }
  ],
  "images": [
    {
      "bufferView": 0,
      "mimeType": "image/jpeg"
    },
    {
      "bufferView": 1,
      "mimeType": "image/jpeg"
    },
    {
      "bufferView": 2,
      "mimeType": "image/png"
    },
    {
      "bufferView": 3,
      "mimeType": "image/png"
    },
    {
      "bufferView": 4,
      "mimeType": "image/png"
    },
    {
      "bufferView": 5,
      "mimeType": "image/jpeg"
    },
    {
      "bufferView": 6,
      "mimeType": "image/png"
    }
  ],
  "textures": [
    {
      "source": 0,
      "sampler": 0
    },
    {
      "source": 1,
      "sampler": 0
    },
    {
      "source": 2,
      "sampler": 0
    },
    {
      "source": 3,
      "sampler": 0
    },
    {
      "source": 4,
      "sampler": 0
    },
    {
      "source": 5,
      "sampler": 0
    },
    {
      "source": 6,
      "sampler": 0
    }
  ],
  "meshes": [
    {
      "primitives": [
        {
          "attributes": {
            "POSITION": 2,
            "NORMAL": 3,
            "TEXCOORD_0": 4
          },
          "indices": 5,
          "mode": 4,
          "material": 0
        },
        {
          "attributes": {
            "POSITION": 2,
            "NORMAL": 3,
            "TEXCOORD_0": 4
          },
          "indices": 6,
          "mode": 4,
          "material": 1
        },
        {
          "attributes": {
            "POSITION": 2,
            "NORMAL": 3,
            "TEXCOORD_0": 4
          },
          "indices": 7,
          "mode": 4,
          "material": 2
        },
        {
          "attributes": {
            "POSITION": 0,
            "NORMAL": 1
          },
          "indices": 8,
          "mode": 4,
          "material": 3
        },
        {
          "attributes": {
            "POSITION": 2,
            "NORMAL": 3,
            "TEXCOORD_0": 4
          },
          "indices": 9,
          "mode": 4,
          "material": 4
        },
        {
          "attributes": {
            "POSITION": 2,
            "NORMAL": 3,
            "TEXCOORD_0": 4
          },
          "indices": 10,
          "mode": 4,
          "material": 5
        },
        {
          "attributes": {
            "POSITION": 0,
            "NORMAL": 1
          },
          "indices": 11,
          "mode": 4,
          "material": 6
        },
        {
          "attributes": {
            "POSITION": 2,
            "NORMAL": 3,
            "TEXCOORD_0": 4
          },
          "indices": 12,
          "mode": 4,
          "material": 7
        },
        {
          "attributes": {
            "POSITION": 2,
            "NORMAL": 3,
            "TEXCOORD_0": 4
          },
          "indices": 13,
          "mode": 4,
          "material": 8
        }
      ]
    }
  ],
  "accessors": [
    {
      "bufferView": 7,
      "componentType": 5126,
      "count": 115,
      "type": "VEC3",
      "min": [
        -92.43562920000002,
        -4.5047299723523905e-15,
        -73.56782340000007
      ],
      "max": [
        -35.1597722,
        24.248813580000007,
        -47.56063640000003
      ]
    },
    {
      "bufferView": 8,
      "componentType": 5126,
      "count": 115,
      "type": "VEC3",
      "min": [
        -0.9952740573631604,
        -1.0,
        -0.9961786527106476
      ],
      "max": [
        0.9999455152064392,
        1.0,
        0.9970477555039308
      ]
    },
    {
      "bufferView": 9,
      "componentType": 5126,
      "count": 397,
      "type": "VEC3",
      "min": [
        -92.43562920000002,
        -4.5047299723523905e-15,
        -73.56782340000007
      ],
      "max": [
        -35.1597722,
        27.79534700000001,
        -47.56063640000003
      ]
    },
    {
      "bufferView": 10,
      "componentType": 5126,
      "count": 397,
      "type": "VEC3",
      "min": [
        -0.9998943994238455,
        -6.122948503132782e-17,
        -0.9999533755195075
      ],
      "max": [
        0.9999455152064392,
        1.0,
        0.9996051939225553
      ]
    },
    {
      "bufferView": 11,
      "componentType": 5126,
      "count": 397,
      "type": "VEC2",
      "min": [
        -154.82544123774858,
        -61.13215999999987
      ],
      "max": [
        153.72309999999928,
        1.0000000000000002
      ]
    },
    {
      "bufferView": 13,
      "componentType": 5123,
      "count": 216,
      "type": "SCALAR"
    },
    {
      "bufferView": 13,
      "componentType": 5123,
      "count": 381,
      "type": "SCALAR",
      "byteOffset": 432
    },
    {
      "bufferView": 13,
      "componentType": 5123,
      "count": 24,
      "type": "SCALAR",
      "byteOffset": 1194
    },
    {
      "bufferView": 12,
      "componentType": 5121,
      "count": 258,
      "type": "SCALAR"
    },
    {
      "bufferView": 13,
      "componentType": 5123,
      "count": 12,
      "type": "SCALAR",
      "byteOffset": 1242
    },
    {
      "bufferView": 13,
      "componentType": 5123,
      "count": 12,
      "type": "SCALAR",
      "byteOffset": 1266
    },
    {
      "bufferView": 12,
      "componentType": 5121,
      "count": 27,
      "type": "SCALAR",
      "byteOffset": 258
    },
    {
      "bufferView": 13,
      "componentType": 5123,
      "count": 54,
      "type": "SCALAR",
      "byteOffset": 1290
    },
    {
      "bufferView": 13,
      "componentType": 5123,
      "count": 18,
      "type": "SCALAR",
      "byteOffset": 1398
    }
  ],
  "bufferViews": [
    {
      "buffer": 0,
      "byteLength": 16740
    },
    {
      "buffer": 0,
      "byteOffset": 16740,
      "byteLength": 13915
    },
    {
      "buffer": 0,
      "byteOffset": 30655,
      "byteLength": 205143
    },
    {
      "buffer": 0,
      "byteOffset": 235798,
      "byteLength": 656461
    },
    {
      "buffer": 0,
      "byteOffset": 892259,
      "byteLength": 52948
    },
    {
      "buffer": 0,
      "byteOffset": 945207,
      "byteLength": 2535
    },
    {
      "buffer": 0,
      "byteOffset": 947742,
      "byteLength": 301629
    },
    {
      "buffer": 0,
      "byteOffset": 1249380,
      "byteLength": 1380,
      "target": 34962,
      "byteStride": 12
    },
    {
      "buffer": 0,
      "byteOffset": 1250760,
      "byteLength": 1380,
      "target": 34962,
      "byteStride": 12
    },
    {
      "buffer": 0,
      "byteOffset": 1252140,
      "byteLength": 4764,
      "target": 34962,
      "byteStride": 12
    },
    {
      "buffer": 0,
      "byteOffset": 1256904,
      "byteLength": 4764,
      "target": 34962,
      "byteStride": 12
    },
    {
      "buffer": 0,
      "byteOffset": 1261672,
      "byteLength": 3176,
      "target": 34962,
      "byteStride": 8
    },
    {
      "buffer": 0,
      "byteOffset": 1264848,
      "byteLength": 285,
      "target": 34963
    },
    {
      "buffer": 0,
      "byteOffset": 1265134,
      "byteLength": 1434,
      "target": 34963
    }
  ],
  "buffers": [
    {
      "uri": "data:application/octet-stream;base64,",
      "byteLength": 1266568
    }
  ]
}