{
  "asset": {
    "version": "2.0",
    "generator": "Sketchup glTF Exporter v1.2.6 by Centaur"
  },
  "scene": 0,
  "scenes": [
    {
      "nodes": [
        0
      ]
    }
  ],
  "samplers": [
    {
    }
  ],
  "nodes": [
    {
      "name": "root",
      "children": [
        1,
        2,
        3,
        4,
        5
      ]
    },
    {
      "name": "Building Footprint",
      "mesh": 0
    },
    {
      "name": "Building Footprint",
      "mesh": 1
    },
    {
      "name": "Building Footprint",
      "mesh": 2
    },
    {
      "name": "Building Footprint",
      "mesh": 3
    },
    {
      "name": "Building Footprint",
      "mesh": 4
    }
  ],
  "materials": [
    {
      "pbrMetallicRoughness": {
        "baseColorTexture": {
          "index": 0
        },
        "metallicFactor": 0.1,
        "roughnessFactor": 0.9
      },
      "name": "Blacktop Old 01"
    }
  ],
  "images": [
    {
      "bufferView": 0,
      "mimeType": "image/jpeg"
    }
  ],
  "textures": [
    {
      "source": 0,
      "sampler": 0
    }
  ],
  "meshes": [
    {
      "primitives": [
        {
          "attributes": {
            "POSITION": 0,
            "NORMAL": 1,
            "TEXCOORD_0": 2
          },
          "indices": 3,
          "mode": 4,
          "material": 0
        }
      ]
    },
    {
      "primitives": [
        {
          "attributes": {
            "POSITION": 0,
            "NORMAL": 1,
            "TEXCOORD_0": 2
          },
          "indices": 4,
          "mode": 4,
          "material": 0
        }
      ]
    },
    {
      "primitives": [
        {
          "attributes": {
            "POSITION": 0,
            "NORMAL": 1,
            "TEXCOORD_0": 2
          },
          "indices": 5,
          "mode": 4,
          "material": 0
        }
      ]
    },
    {
      "primitives": [
        {
          "attributes": {
            "POSITION": 0,
            "NORMAL": 1,
            "TEXCOORD_0": 2
          },
          "indices": 6,
          "mode": 4,
          "material": 0
        }
      ]
    },
    {
      "primitives": [
        {
          "attributes": {
            "POSITION": 0,
            "NORMAL": 1,
            "TEXCOORD_0": 2
          },
          "indices": 7,
          "mode": 4,
          "material": 0
        }
      ]
    }
  ],
  "accessors": [
    {
      "bufferView": 1,
      "componentType": 5126,
      "count": 193,
      "type": "VEC3",
      "min": [
        -127.69886800798479,
        -8.403784760750613e-15,
        -137.24422040055396
      ],
      "max": [
        115.8824408890907,
        8.59048955119265e-15,
        140.29334102165106
      ]
    },
    {
      "bufferView": 2,
      "componentType": 5126,
      "count": 193,
      "type": "VEC3",
      "min": [
        7.498798913309288e-33,
        1.0,
        -6.123233995736766e-17
      ],
      "max": [
        7.498798913309288e-33,
        1.0,
        -6.123233995736766e-17
      ]
    },
    {
      "bufferView": 3,
      "componentType": 5126,
      "count": 193,
      "type": "VEC2",
      "min": [
        -5027.514488503337,
        -5402.315763801336
      ],
      "max": [
        4562.300822405145,
        5524.3598827421665
      ]
    },
    {
      "bufferView": 4,
      "componentType": 5121,
      "count": 39,
      "type": "SCALAR"
    },
    {
      "bufferView": 4,
      "componentType": 5121,
      "count": 90,
      "type": "SCALAR",
      "byteOffset": 39
    },
    {
      "bufferView": 4,
      "componentType": 5121,
      "count": 228,
      "type": "SCALAR",
      "byteOffset": 129
    },
    {
      "bufferView": 4,
      "componentType": 5121,
      "count": 153,
      "type": "SCALAR",
      "byteOffset": 357
    },
    {
      "bufferView": 4,
      "componentType": 5121,
      "count": 87,
      "type": "SCALAR",
      "byteOffset": 510
    }
  ],
  "bufferViews": [
    {
      "buffer": 0,
      "byteLength": 39547
    },
    {
      "buffer": 0,
      "byteOffset": 39552,
      "byteLength": 2316,
      "target": 34962,
      "byteStride": 12
    },
    {
      "buffer": 0,
      "byteOffset": 41868,
      "byteLength": 2316,
      "target": 34962,
      "byteStride": 12
    },
    {
      "buffer": 0,
      "byteOffset": 44184,
      "byteLength": 1544,
      "target": 34962,
      "byteStride": 8
    },
    {
      "buffer": 0,
      "byteOffset": 45728,
      "byteLength": 597,
      "target": 34963
    }
  ],
  "buffers": [
    {
      "uri": "data:application/octet-stream;base64,",
      "byteLength": 46325
    }
  ]
}