{
  "asset": {
    "version": "2.0",
    "generator": "Sketchup glTF Exporter v1.2.6 by Centaur"
  },
  "scene": 0,
  "scenes": [
    {
      "nodes": [
        0
      ]
    }
  ],
  "samplers": [
    {
    }
  ],
  "nodes": [
    {
      "name": "root",
      "children": [
        1,
        2,
        3,
        4,
        5
      ]
    },
    {
      "name": "Building Footprint",
      "mesh": 0
    },
    {
      "name": "Building Footprint",
      "mesh": 1
    },
    {
      "name": "Building Footprint",
      "mesh": 2
    },
    {
      "name": "Building Footprint",
      "mesh": 3
    },
    {
      "name": "Building Footprint",
      "mesh": 4
    }
  ],
  "materials": [
    {
      "pbrMetallicRoughness": {
        "baseColorTexture": {
          "index": 0
        },
        "metallicFactor": 0.1,
        "roughnessFactor": 0.9
      },
      "name": "Brick Tumbled"
    }
  ],
  "images": [
    {
      "bufferView": 0,
      "mimeType": "image/jpeg"
    }
  ],
  "textures": [
    {
      "source": 0,
      "sampler": 0
    }
  ],
  "meshes": [
    {
      "primitives": [
        {
          "attributes": {
            "POSITION": 0,
            "NORMAL": 1,
            "TEXCOORD_0": 2
          },
          "indices": 3,
          "mode": 4,
          "material": 0
        }
      ]
    },
    {
      "primitives": [
        {
          "attributes": {
            "POSITION": 0,
            "NORMAL": 1,
            "TEXCOORD_0": 2
          },
          "indices": 4,
          "mode": 4,
          "material": 0
        }
      ]
    },
    {
      "primitives": [
        {
          "attributes": {
            "POSITION": 0,
            "NORMAL": 1,
            "TEXCOORD_0": 2
          },
          "indices": 5,
          "mode": 4,
          "material": 0
        }
      ]
    },
    {
      "primitives": [
        {
          "attributes": {
            "POSITION": 0,
            "NORMAL": 1,
            "TEXCOORD_0": 2
          },
          "indices": 6,
          "mode": 4,
          "material": 0
        }
      ]
    },
    {
      "primitives": [
        {
          "attributes": {
            "POSITION": 0,
            "NORMAL": 1,
            "TEXCOORD_0": 2
          },
          "indices": 7,
          "mode": 4,
          "material": 0
        }
      ]
    }
  ],
  "accessors": [
    {
      "bufferView": 1,
      "componentType": 5126,
      "count": 636,
      "type": "VEC3",
      "min": [
        -115.11410983442964,
        -7.579909865251799e-15,
        -123.78932228507402
      ],
      "max": [
        106.95178647792342,
        7.818242350063318e-15,
        127.68158714017272
      ]
    },
    {
      "bufferView": 2,
      "componentType": 5126,
      "count": 636,
      "type": "VEC3",
      "min": [
        7.498798913309288e-33,
        1.0,
        -6.123233995736766e-17
      ],
      "max": [
        7.498798913309288e-33,
        1.0,
        -6.123233995736766e-17
      ]
    },
    {
      "bufferView": 3,
      "componentType": 5126,
      "count": 636,
      "type": "VEC2",
      "min": [
        -4532.051568284631,
        -4872.595365554094
      ],
      "max": [
        4210.700255036354,
        5027.834139376879
      ]
    },
    {
      "bufferView": 4,
      "componentType": 5123,
      "count": 345,
      "type": "SCALAR"
    },
    {
      "bufferView": 4,
      "componentType": 5123,
      "count": 171,
      "type": "SCALAR",
      "byteOffset": 690
    },
    {
      "bufferView": 4,
      "componentType": 5123,
      "count": 15,
      "type": "SCALAR",
      "byteOffset": 1032
    },
    {
      "bufferView": 4,
      "componentType": 5123,
      "count": 6,
      "type": "SCALAR",
      "byteOffset": 1062
    },
    {
      "bufferView": 4,
      "componentType": 5123,
      "count": 1440,
      "type": "SCALAR",
      "byteOffset": 1074
    }
  ],
  "bufferViews": [
    {
      "buffer": 0,
      "byteLength": 17082
    },
    {
      "buffer": 0,
      "byteOffset": 17088,
      "byteLength": 7632,
      "target": 34962,
      "byteStride": 12
    },
    {
      "buffer": 0,
      "byteOffset": 24720,
      "byteLength": 7632,
      "target": 34962,
      "byteStride": 12
    },
    {
      "buffer": 0,
      "byteOffset": 32352,
      "byteLength": 5088,
      "target": 34962,
      "byteStride": 8
    },
    {
      "buffer": 0,
      "byteOffset": 37440,
      "byteLength": 3954,
      "target": 34963
    }
  ],
  "buffers": [
    {
      "uri": "data:application/octet-stream;base64,",
      "byteLength": 41394
    }
  ]
}