{
  "asset": {
    "version": "2.0",
    "generator": "Sketchup glTF Exporter v1.2.6 by Centaur"
  },
  "scene": 0,
  "scenes": [
    {
      "nodes": [
        0
      ]
    }
  ],
  "samplers": [
    {
    }
  ],
  "nodes": [
    {
      "name": "root",
      "mesh": 0
    }
  ],
  "materials": [
    {
      "pbrMetallicRoughness": {
        "baseColorFactor": [
          1.0,
          0.8277,
          0.4995,
          1.0
        ],
        "metallicFactor": 0.1,
        "roughnessFactor": 0.9
      },
      "name": "<auto>1",
      "doubleSided": true
    },
    {
      "pbrMetallicRoughness": {
        "baseColorFactor": [
          0.1275,
          0.3021,
          0.8513,
          0.502
        ],
        "metallicFactor": 0.1,
        "roughnessFactor": 0.9
      },
      "name": "<auto>99",
      "doubleSided": true,
      "alphaMode": "BLEND"
    },
    {
      "pbrMetallicRoughness": {
        "baseColorTexture": {
          "index": 0
        },
        "metallicFactor": 0.1,
        "roughnessFactor": 0.9
      },
      "name": "<auto>100",
      "doubleSided": true
    },
    {
      "pbrMetallicRoughness": {
        "baseColorTexture": {
          "index": 1
        },
        "metallicFactor": 0.1,
        "roughnessFactor": 0.9
      },
      "name": "Stone Brushed Khaki",
      "doubleSided": true
    },
    {
      "pbrMetallicRoughness": {
        "baseColorTexture": {
          "index": 2
        },
        "metallicFactor": 0.1,
        "roughnessFactor": 0.9
      },
      "name": "<auto>102",
      "doubleSided": true
    },
    {
      "pbrMetallicRoughness": {
        "baseColorFactor": [
          0.1332,
          0.029,
          0.0,
          1.0
        ],
        "metallicFactor": 0.1,
        "roughnessFactor": 0.9
      },
      "name": "Color C08",
      "doubleSided": true
    },
    {
      "pbrMetallicRoughness": {
        "baseColorFactor": [
          0.2176,
          0.2176,
          0.2176,
          1.0
        ],
        "metallicFactor": 0.1,
        "roughnessFactor": 0.9
      },
      "name": "default material",
      "doubleSided": true
    },
    {
      "pbrMetallicRoughness": {
        "baseColorTexture": {
          "index": 3
        },
        "metallicFactor": 0.1,
        "roughnessFactor": 0.9
      },
      "name": "Cladding Weathered",
      "doubleSided": true
    },
    {
      "pbrMetallicRoughness": {
        "baseColorTexture": {
          "index": 4
        },
        "metallicFactor": 0.1,
        "roughnessFactor": 0.9
      },
      "name": "Brick Rough Dark",
      "doubleSided": true
    }
  ],
  "images": [
    {
      "bufferView": 0,
      "mimeType": "image/jpeg"
    },
    {
      "bufferView": 1,
      "mimeType": "image/jpeg"
    },
    {
      "bufferView": 2,
      "mimeType": "image/jpeg"
    },
    {
      "bufferView": 3,
      "mimeType": "image/jpeg"
    },
    {
      "bufferView": 4,
      "mimeType": "image/jpeg"
    }
  ],
  "textures": [
    {
      "source": 0,
      "sampler": 0
    },
    {
      "source": 1,
      "sampler": 0
    },
    {
      "source": 2,
      "sampler": 0
    },
    {
      "source": 3,
      "sampler": 0
    },
    {
      "source": 4,
      "sampler": 0
    }
  ],
  "meshes": [
    {
      "primitives": [
        {
          "attributes": {
            "POSITION": 0,
            "NORMAL": 1
          },
          "indices": 5,
          "mode": 4,
          "material": 0
        },
        {
          "attributes": {
            "POSITION": 0,
            "NORMAL": 1
          },
          "indices": 6,
          "mode": 4,
          "material": 1
        },
        {
          "attributes": {
            "POSITION": 2,
            "NORMAL": 3,
            "TEXCOORD_0": 4
          },
          "indices": 7,
          "mode": 4,
          "material": 2
        },
        {
          "attributes": {
            "POSITION": 2,
            "NORMAL": 3,
            "TEXCOORD_0": 4
          },
          "indices": 8,
          "mode": 4,
          "material": 3
        },
        {
          "attributes": {
            "POSITION": 2,
            "NORMAL": 3,
            "TEXCOORD_0": 4
          },
          "indices": 9,
          "mode": 4,
          "material": 4
        },
        {
          "attributes": {
            "POSITION": 0,
            "NORMAL": 1
          },
          "indices": 10,
          "mode": 4,
          "material": 5
        },
        {
          "attributes": {
            "POSITION": 0,
            "NORMAL": 1
          },
          "indices": 11,
          "mode": 4,
          "material": 6
        },
        {
          "attributes": {
            "POSITION": 2,
            "NORMAL": 3,
            "TEXCOORD_0": 4
          },
          "indices": 12,
          "mode": 4,
          "material": 7
        },
        {
          "attributes": {
            "POSITION": 2,
            "NORMAL": 3,
            "TEXCOORD_0": 4
          },
          "indices": 13,
          "mode": 4,
          "material": 8
        }
      ]
    }
  ],
  "accessors": [
    {
      "bufferView": 5,
      "componentType": 5126,
      "count": 54,
      "type": "VEC3",
      "min": [
        -21.843588520000036,
        6.784523476984065e-15,
        110.79967680000004
      ],
      "max": [
        -9.96030266000003,
        9.15300522000001,
        124.28905800000005
      ]
    },
    {
      "bufferView": 6,
      "componentType": 5126,
      "count": 54,
      "type": "VEC3",
      "min": [
        -0.9966340670294491,
        -1.0,
        -0.8287686019938807
      ],
      "max": [
        0.06814717918271578,
        1.0,
        2.5163537254856704e-16
      ]
    },
    {
      "bufferView": 7,
      "componentType": 5126,
      "count": 133,
      "type": "VEC3",
      "min": [
        -21.843588520000036,
        6.784523476984065e-15,
        110.79967680000004
      ],
      "max": [
        -9.96030266000003,
        9.153005220000011,
        124.28905800000005
      ]
    },
    {
      "bufferView": 8,
      "componentType": 5126,
      "count": 133,
      "type": "VEC3",
      "min": [
        -0.9981722873655322,
        -1.0,
        -0.9966344487948464
      ],
      "max": [
        0.9966364704333694,
        1.0,
        0.9966393719880425
      ]
    },
    {
      "bufferView": 9,
      "componentType": 5126,
      "count": 133,
      "type": "VEC2",
      "min": [
        -204.67925919943366,
        -78.38646900249199
      ],
      "max": [
        204.67901295831484,
        272.8483001574639
      ]
    },
    {
      "bufferView": 10,
      "componentType": 5121,
      "count": 66,
      "type": "SCALAR"
    },
    {
      "bufferView": 10,
      "componentType": 5121,
      "count": 33,
      "type": "SCALAR",
      "byteOffset": 66
    },
    {
      "bufferView": 11,
      "componentType": 5121,
      "count": 111,
      "type": "SCALAR"
    },
    {
      "bufferView": 11,
      "componentType": 5121,
      "count": 81,
      "type": "SCALAR",
      "byteOffset": 111
    },
    {
      "bufferView": 11,
      "componentType": 5121,
      "count": 27,
      "type": "SCALAR",
      "byteOffset": 192
    },
    {
      "bufferView": 10,
      "componentType": 5121,
      "count": 6,
      "type": "SCALAR",
      "byteOffset": 99
    },
    {
      "bufferView": 10,
      "componentType": 5121,
      "count": 9,
      "type": "SCALAR",
      "byteOffset": 105
    },
    {
      "bufferView": 11,
      "componentType": 5121,
      "count": 3,
      "type": "SCALAR",
      "byteOffset": 219
    },
    {
      "bufferView": 11,
      "componentType": 5121,
      "count": 15,
      "type": "SCALAR",
      "byteOffset": 222
    }
  ],
  "bufferViews": [
    {
      "buffer": 0,
      "byteLength": 10294
    },
    {
      "buffer": 0,
      "byteOffset": 10294,
      "byteLength": 8264
    },
    {
      "buffer": 0,
      "byteOffset": 18558,
      "byteLength": 6518
    },
    {
      "buffer": 0,
      "byteOffset": 25076,
      "byteLength": 24865
    },
    {
      "buffer": 0,
      "byteOffset": 49941,
      "byteLength": 8021
    },
    {
      "buffer": 0,
      "byteOffset": 57972,
      "byteLength": 648,
      "target": 34962,
      "byteStride": 12
    },
    {
      "buffer": 0,
      "byteOffset": 58620,
      "byteLength": 648,
      "target": 34962,
      "byteStride": 12
    },
    {
      "buffer": 0,
      "byteOffset": 59268,
      "byteLength": 1596,
      "target": 34962,
      "byteStride": 12
    },
    {
      "buffer": 0,
      "byteOffset": 60864,
      "byteLength": 1596,
      "target": 34962,
      "byteStride": 12
    },
    {
      "buffer": 0,
      "byteOffset": 62464,
      "byteLength": 1064,
      "target": 34962,
      "byteStride": 8
    },
    {
      "buffer": 0,
      "byteOffset": 63528,
      "byteLength": 114,
      "target": 34963
    },
    {
      "buffer": 0,
      "byteOffset": 63642,
      "byteLength": 237,
      "target": 34963
    }
  ],
  "buffers": [
    {
      "uri": "data:application/octet-stream;base64,",
      "byteLength": 63879
    }
  ]
}