{
  "asset": {
    "version": "2.0",
    "generator": "Sketchup glTF Exporter v1.2.6 by Centaur"
  },
  "scene": 0,
  "scenes": [
    {
      "nodes": [
        0
      ]
    }
  ],
  "samplers": [
    {
    }
  ],
  "nodes": [
    {
      "name": "root",
      "mesh": 0
    }
  ],
  "materials": [
    {
      "pbrMetallicRoughness": {
        "baseColorTexture": {
          "index": 0
        },
        "metallicFactor": 0.1,
        "roughnessFactor": 0.9
      },
      "name": "螢幕擷取畫面 2023-07-21 152327",
      "doubleSided": true
    },
    {
      "pbrMetallicRoughness": {
        "baseColorTexture": {
          "index": 1
        },
        "metallicFactor": 0.1,
        "roughnessFactor": 0.9
      },
      "name": "<auto>120",
      "doubleSided": true
    },
    {
      "pbrMetallicRoughness": {
        "baseColorTexture": {
          "index": 2
        },
        "metallicFactor": 0.1,
        "roughnessFactor": 0.9
      },
      "name": "<auto>121",
      "doubleSided": true
    },
    {
      "pbrMetallicRoughness": {
        "baseColorTexture": {
          "index": 3
        },
        "metallicFactor": 0.1,
        "roughnessFactor": 0.9
      },
      "name": "螢幕擷取畫面 2023-07-21 152634",
      "doubleSided": true
    },
    {
      "pbrMetallicRoughness": {
        "baseColorTexture": {
          "index": 4
        },
        "metallicFactor": 0.1,
        "roughnessFactor": 0.9
      },
      "name": "螢幕擷取畫面 2023-07-21 152413",
      "doubleSided": true
    }
  ],
  "images": [
    {
      "bufferView": 0,
      "mimeType": "image/png"
    },
    {
      "bufferView": 1,
      "mimeType": "image/png"
    },
    {
      "bufferView": 2,
      "mimeType": "image/jpeg"
    },
    {
      "bufferView": 3,
      "mimeType": "image/png"
    },
    {
      "bufferView": 4,
      "mimeType": "image/png"
    }
  ],
  "textures": [
    {
      "source": 0,
      "sampler": 0
    },
    {
      "source": 1,
      "sampler": 0
    },
    {
      "source": 2,
      "sampler": 0
    },
    {
      "source": 3,
      "sampler": 0
    },
    {
      "source": 4,
      "sampler": 0
    }
  ],
  "meshes": [
    {
      "primitives": [
        {
          "attributes": {
            "POSITION": 0,
            "NORMAL": 1,
            "TEXCOORD_0": 2
          },
          "indices": 3,
          "mode": 4,
          "material": 0
        },
        {
          "attributes": {
            "POSITION": 0,
            "NORMAL": 1,
            "TEXCOORD_0": 2
          },
          "indices": 4,
          "mode": 4,
          "material": 1
        },
        {
          "attributes": {
            "POSITION": 0,
            "NORMAL": 1,
            "TEXCOORD_0": 2
          },
          "indices": 5,
          "mode": 4,
          "material": 2
        },
        {
          "attributes": {
            "POSITION": 0,
            "NORMAL": 1,
            "TEXCOORD_0": 2
          },
          "indices": 6,
          "mode": 4,
          "material": 3
        },
        {
          "attributes": {
            "POSITION": 0,
            "NORMAL": 1,
            "TEXCOORD_0": 2
          },
          "indices": 7,
          "mode": 4,
          "material": 4
        }
      ]
    }
  ],
  "accessors": [
    {
      "bufferView": 5,
      "componentType": 5126,
      "count": 222,
      "type": "VEC3",
      "min": [
        -102.06706289608735,
        4.085335174923306e-15,
        66.71858657970076
      ],
      "max": [
        -45.520795496087324,
        15.16512588000001,
        97.78679977970077
      ]
    },
    {
      "bufferView": 6,
      "componentType": 5126,
      "count": 222,
      "type": "VEC3",
      "min": [
        -0.9996525559368811,
        -1.0,
        -0.995973927681469
      ],
      "max": [
        0.9999993909495125,
        1.0,
        0.9959710449786872
      ]
    },
    {
      "bufferView": 7,
      "componentType": 5126,
      "count": 222,
      "type": "VEC2",
      "min": [
        -254.71716492641644,
        -32.157672406457465
      ],
      "max": [
        517.245142569459,
        1463.8852110264095
      ]
    },
    {
      "bufferView": 8,
      "componentType": 5121,
      "count": 126,
      "type": "SCALAR"
    },
    {
      "bufferView": 8,
      "componentType": 5121,
      "count": 102,
      "type": "SCALAR",
      "byteOffset": 126
    },
    {
      "bufferView": 8,
      "componentType": 5121,
      "count": 102,
      "type": "SCALAR",
      "byteOffset": 228
    },
    {
      "bufferView": 8,
      "componentType": 5121,
      "count": 84,
      "type": "SCALAR",
      "byteOffset": 330
    },
    {
      "bufferView": 8,
      "componentType": 5121,
      "count": 6,
      "type": "SCALAR",
      "byteOffset": 414
    }
  ],
  "bufferViews": [
    {
      "buffer": 0,
      "byteLength": 195
    },
    {
      "buffer": 0,
      "byteOffset": 195,
      "byteLength": 202
    },
    {
      "buffer": 0,
      "byteOffset": 397,
      "byteLength": 34577
    },
    {
      "buffer": 0,
      "byteOffset": 34974,
      "byteLength": 34130
    },
    {
      "buffer": 0,
      "byteOffset": 69104,
      "byteLength": 46803
    },
    {
      "buffer": 0,
      "byteOffset": 115908,
      "byteLength": 2664,
      "target": 34962,
      "byteStride": 12
    },
    {
      "buffer": 0,
      "byteOffset": 118572,
      "byteLength": 2664,
      "target": 34962,
      "byteStride": 12
    },
    {
      "buffer": 0,
      "byteOffset": 121240,
      "byteLength": 1776,
      "target": 34962,
      "byteStride": 8
    },
    {
      "buffer": 0,
      "byteOffset": 123016,
      "byteLength": 420,
      "target": 34963
    }
  ],
  "buffers": [
    {
      "uri": "data:application/octet-stream;base64,",
      "byteLength": 123436
    }
  ]
}