{
  "asset": {
    "version": "2.0",
    "generator": "Sketchup glTF Exporter v1.2.6 by Centaur"
  },
  "scene": 0,
  "scenes": [
    {
      "nodes": [
        0
      ]
    }
  ],
  "samplers": [
    {
    }
  ],
  "nodes": [
    {
      "name": "root",
      "mesh": 0
    }
  ],
  "materials": [
    {
      "pbrMetallicRoughness": {
        "baseColorTexture": {
          "index": 0
        },
        "metallicFactor": 0.1,
        "roughnessFactor": 0.9
      },
      "name": "<auto>139",
      "doubleSided": true
    },
    {
      "pbrMetallicRoughness": {
        "baseColorFactor": [
          1.0,
          1.0,
          1.0,
          1.0
        ],
        "metallicFactor": 0.1,
        "roughnessFactor": 0.9
      },
      "name": "<auto>7",
      "doubleSided": true
    },
    {
      "pbrMetallicRoughness": {
        "baseColorTexture": {
          "index": 1
        },
        "metallicFactor": 0.1,
        "roughnessFactor": 0.9
      },
      "name": "<auto>140",
      "doubleSided": true
    },
    {
      "pbrMetallicRoughness": {
        "baseColorTexture": {
          "index": 2
        },
        "metallicFactor": 0.1,
        "roughnessFactor": 0.9
      },
      "name": "<auto>141",
      "doubleSided": true
    }
  ],
  "images": [
    {
      "bufferView": 0,
      "mimeType": "image/jpeg"
    },
    {
      "bufferView": 1,
      "mimeType": "image/png"
    },
    {
      "bufferView": 2,
      "mimeType": "image/jpeg"
    }
  ],
  "textures": [
    {
      "source": 0,
      "sampler": 0
    },
    {
      "source": 1,
      "sampler": 0
    },
    {
      "source": 2,
      "sampler": 0
    }
  ],
  "meshes": [
    {
      "primitives": [
        {
          "attributes": {
            "POSITION": 2,
            "NORMAL": 3,
            "TEXCOORD_0": 4
          },
          "indices": 5,
          "mode": 4,
          "material": 0
        },
        {
          "attributes": {
            "POSITION": 0,
            "NORMAL": 1
          },
          "indices": 6,
          "mode": 4,
          "material": 1
        },
        {
          "attributes": {
            "POSITION": 2,
            "NORMAL": 3,
            "TEXCOORD_0": 4
          },
          "indices": 7,
          "mode": 4,
          "material": 2
        },
        {
          "attributes": {
            "POSITION": 2,
            "NORMAL": 3,
            "TEXCOORD_0": 4
          },
          "indices": 8,
          "mode": 4,
          "material": 3
        }
      ]
    }
  ],
  "accessors": [
    {
      "bufferView": 3,
      "componentType": 5126,
      "count": 108,
      "type": "VEC3",
      "min": [
        -63.6813306,
        -5.175523704724978e-15,
        -84.84184200000004
      ],
      "max": [
        -60.346717,
        6.5780157999999975,
        -75.87996000000005
      ]
    },
    {
      "bufferView": 4,
      "componentType": 5126,
      "count": 108,
      "type": "VEC3",
      "min": [
        -0.9952055550502427,
        -1.0,
        -0.997735269249546
      ],
      "max": [
        0.06726619511734987,
        1.0,
        0.9946162275814986
      ]
    },
    {
      "bufferView": 5,
      "componentType": 5126,
      "count": 1523,
      "type": "VEC3",
      "min": [
        -71.21085580000002,
        -4.39596056405352e-08,
        -85.51979340000004
      ],
      "max": [
        -59.41895660000001,
        6.578015799999998,
        -55.30342000000004
      ]
    },
    {
      "bufferView": 6,
      "componentType": 5126,
      "count": 1523,
      "type": "VEC3",
      "min": [
        -1.0,
        -1.0,
        -1.0
      ],
      "max": [
        0.9999980339670723,
        1.0,
        1.0
      ]
    },
    {
      "bufferView": 7,
      "componentType": 5126,
      "count": 1523,
      "type": "VEC2",
      "min": [
        -2653.9207068862584,
        -3358.665422211749
      ],
      "max": [
        2503.210000000001,
        104.81735831523547
      ]
    },
    {
      "bufferView": 9,
      "componentType": 5123,
      "count": 1806,
      "type": "SCALAR"
    },
    {
      "bufferView": 8,
      "componentType": 5121,
      "count": 183,
      "type": "SCALAR"
    },
    {
      "bufferView": 9,
      "componentType": 5123,
      "count": 708,
      "type": "SCALAR",
      "byteOffset": 3612
    },
    {
      "bufferView": 9,
      "componentType": 5123,
      "count": 33,
      "type": "SCALAR",
      "byteOffset": 5028
    }
  ],
  "bufferViews": [
    {
      "buffer": 0,
      "byteLength": 15888
    },
    {
      "buffer": 0,
      "byteOffset": 15888,
      "byteLength": 179
    },
    {
      "buffer": 0,
      "byteOffset": 16067,
      "byteLength": 15888
    },
    {
      "buffer": 0,
      "byteOffset": 31956,
      "byteLength": 1296,
      "target": 34962,
      "byteStride": 12
    },
    {
      "buffer": 0,
      "byteOffset": 33252,
      "byteLength": 1296,
      "target": 34962,
      "byteStride": 12
    },
    {
      "buffer": 0,
      "byteOffset": 34548,
      "byteLength": 18276,
      "target": 34962,
      "byteStride": 12
    },
    {
      "buffer": 0,
      "byteOffset": 52824,
      "byteLength": 18276,
      "target": 34962,
      "byteStride": 12
    },
    {
      "buffer": 0,
      "byteOffset": 71104,
      "byteLength": 12184,
      "target": 34962,
      "byteStride": 8
    },
    {
      "buffer": 0,
      "byteOffset": 83288,
      "byteLength": 183,
      "target": 34963
    },
    {
      "buffer": 0,
      "byteOffset": 83472,
      "byteLength": 5094,
      "target": 34963
    }
  ],
  "buffers": [
    {
      "uri": "data:application/octet-stream;base64,",
      "byteLength": 88566
    }
  ]
}