{
  "asset": {
    "version": "2.0",
    "generator": "Sketchup glTF Exporter v1.2.6 by Centaur"
  },
  "scene": 0,
  "scenes": [
    {
      "nodes": [
        0
      ]
    }
  ],
  "samplers": [
    {
    }
  ],
  "nodes": [
    {
      "name": "root",
      "mesh": 0
    }
  ],
  "materials": [
    {
      "pbrMetallicRoughness": {
        "baseColorFactor": [
          1.0,
          0.8277,
          0.4995,
          1.0
        ],
        "metallicFactor": 0.1,
        "roughnessFactor": 0.9
      },
      "name": "<auto>1",
      "doubleSided": true
    },
    {
      "pbrMetallicRoughness": {
        "baseColorTexture": {
          "index": 0
        },
        "metallicFactor": 0.1,
        "roughnessFactor": 0.9
      },
      "name": "<auto>131",
      "doubleSided": true
    },
    {
      "pbrMetallicRoughness": {
        "baseColorTexture": {
          "index": 1
        },
        "metallicFactor": 0.1,
        "roughnessFactor": 0.9
      },
      "name": "<auto>132",
      "doubleSided": true
    },
    {
      "pbrMetallicRoughness": {
        "baseColorTexture": {
          "index": 2
        },
        "metallicFactor": 0.1,
        "roughnessFactor": 0.9
      },
      "name": "<auto>133",
      "doubleSided": true
    },
    {
      "pbrMetallicRoughness": {
        "baseColorFactor": [
          1.0,
          1.0,
          1.0,
          1.0
        ],
        "metallicFactor": 0.1,
        "roughnessFactor": 0.9
      },
      "name": "<auto>7",
      "doubleSided": true
    },
    {
      "pbrMetallicRoughness": {
        "baseColorTexture": {
          "index": 3
        },
        "metallicFactor": 0.1,
        "roughnessFactor": 0.9
      },
      "name": "<auto>134",
      "doubleSided": true
    },
    {
      "pbrMetallicRoughness": {
        "baseColorTexture": {
          "index": 4
        },
        "metallicFactor": 0.1,
        "roughnessFactor": 0.9
      },
      "name": "<auto>135",
      "doubleSided": true
    },
    {
      "pbrMetallicRoughness": {
        "baseColorTexture": {
          "index": 5
        },
        "metallicFactor": 0.1,
        "roughnessFactor": 0.9
      },
      "name": "<auto>136",
      "doubleSided": true
    },
    {
      "pbrMetallicRoughness": {
        "baseColorTexture": {
          "index": 6
        },
        "metallicFactor": 0.1,
        "roughnessFactor": 0.9
      },
      "name": "<auto>137",
      "doubleSided": true
    },
    {
      "pbrMetallicRoughness": {
        "baseColorTexture": {
          "index": 7
        },
        "metallicFactor": 0.1,
        "roughnessFactor": 0.9
      },
      "name": "<auto>138",
      "doubleSided": true
    }
  ],
  "images": [
    {
      "bufferView": 0,
      "mimeType": "image/png"
    },
    {
      "bufferView": 1,
      "mimeType": "image/png"
    },
    {
      "bufferView": 2,
      "mimeType": "image/png"
    },
    {
      "bufferView": 3,
      "mimeType": "image/jpeg"
    },
    {
      "bufferView": 4,
      "mimeType": "image/jpeg"
    },
    {
      "bufferView": 5,
      "mimeType": "image/png"
    },
    {
      "bufferView": 6,
      "mimeType": "image/png"
    },
    {
      "bufferView": 7,
      "mimeType": "image/png"
    }
  ],
  "textures": [
    {
      "source": 0,
      "sampler": 0
    },
    {
      "source": 1,
      "sampler": 0
    },
    {
      "source": 2,
      "sampler": 0
    },
    {
      "source": 3,
      "sampler": 0
    },
    {
      "source": 4,
      "sampler": 0
    },
    {
      "source": 5,
      "sampler": 0
    },
    {
      "source": 6,
      "sampler": 0
    },
    {
      "source": 7,
      "sampler": 0
    }
  ],
  "meshes": [
    {
      "primitives": [
        {
          "attributes": {
            "POSITION": 0,
            "NORMAL": 1
          },
          "indices": 5,
          "mode": 4,
          "material": 0
        },
        {
          "attributes": {
            "POSITION": 2,
            "NORMAL": 3,
            "TEXCOORD_0": 4
          },
          "indices": 6,
          "mode": 4,
          "material": 1
        },
        {
          "attributes": {
            "POSITION": 2,
            "NORMAL": 3,
            "TEXCOORD_0": 4
          },
          "indices": 7,
          "mode": 4,
          "material": 2
        },
        {
          "attributes": {
            "POSITION": 2,
            "NORMAL": 3,
            "TEXCOORD_0": 4
          },
          "indices": 8,
          "mode": 4,
          "material": 3
        },
        {
          "attributes": {
            "POSITION": 0,
            "NORMAL": 1
          },
          "indices": 9,
          "mode": 4,
          "material": 4
        },
        {
          "attributes": {
            "POSITION": 2,
            "NORMAL": 3,
            "TEXCOORD_0": 4
          },
          "indices": 10,
          "mode": 4,
          "material": 5
        },
        {
          "attributes": {
            "POSITION": 2,
            "NORMAL": 3,
            "TEXCOORD_0": 4
          },
          "indices": 11,
          "mode": 4,
          "material": 6
        },
        {
          "attributes": {
            "POSITION": 2,
            "NORMAL": 3,
            "TEXCOORD_0": 4
          },
          "indices": 12,
          "mode": 4,
          "material": 7
        },
        {
          "attributes": {
            "POSITION": 2,
            "NORMAL": 3,
            "TEXCOORD_0": 4
          },
          "indices": 13,
          "mode": 4,
          "material": 8
        },
        {
          "attributes": {
            "POSITION": 2,
            "NORMAL": 3,
            "TEXCOORD_0": 4
          },
          "indices": 14,
          "mode": 4,
          "material": 9
        }
      ]
    }
  ],
  "accessors": [
    {
      "bufferView": 8,
      "componentType": 5126,
      "count": 81,
      "type": "VEC3",
      "min": [
        -90.57279320000002,
        -6.160351460424555e-15,
        -100.60617420000005
      ],
      "max": [
        -68.73427960000001,
        30.976087400000004,
        -65.49181720000004
      ]
    },
    {
      "bufferView": 9,
      "componentType": 5126,
      "count": 81,
      "type": "VEC3",
      "min": [
        -0.9959715394886682,
        -1.0,
        -0.9978939763004193
      ],
      "max": [
        0.9957636519576439,
        1.0,
        0.9999064885762747
      ]
    },
    {
      "bufferView": 10,
      "componentType": 5126,
      "count": 251,
      "type": "VEC3",
      "min": [
        -90.57279320000002,
        -6.160351460424555e-15,
        -100.60617420000005
      ],
      "max": [
        -68.73427960000001,
        34.59330140000001,
        -65.49181720000004
      ]
    },
    {
      "bufferView": 11,
      "componentType": 5126,
      "count": 251,
      "type": "VEC3",
      "min": [
        -0.9989510674437312,
        -1.0,
        -0.999358678578313
      ],
      "max": [
        0.999843547303479,
        1.0,
        0.9986421898821028
      ]
    },
    {
      "bufferView": 12,
      "componentType": 5126,
      "count": 251,
      "type": "VEC2",
      "min": [
        -3167.256980777115,
        -3934.5829693330243
      ],
      "max": [
        211.46989999999943,
        2.07254
      ]
    },
    {
      "bufferView": 13,
      "componentType": 5121,
      "count": 171,
      "type": "SCALAR"
    },
    {
      "bufferView": 14,
      "componentType": 5121,
      "count": 231,
      "type": "SCALAR"
    },
    {
      "bufferView": 14,
      "componentType": 5121,
      "count": 6,
      "type": "SCALAR",
      "byteOffset": 231
    },
    {
      "bufferView": 14,
      "componentType": 5121,
      "count": 6,
      "type": "SCALAR",
      "byteOffset": 237
    },
    {
      "bufferView": 13,
      "componentType": 5121,
      "count": 6,
      "type": "SCALAR",
      "byteOffset": 171
    },
    {
      "bufferView": 14,
      "componentType": 5121,
      "count": 57,
      "type": "SCALAR",
      "byteOffset": 243
    },
    {
      "bufferView": 14,
      "componentType": 5121,
      "count": 84,
      "type": "SCALAR",
      "byteOffset": 300
    },
    {
      "bufferView": 14,
      "componentType": 5121,
      "count": 6,
      "type": "SCALAR",
      "byteOffset": 384
    },
    {
      "bufferView": 14,
      "componentType": 5121,
      "count": 6,
      "type": "SCALAR",
      "byteOffset": 390
    },
    {
      "bufferView": 14,
      "componentType": 5121,
      "count": 48,
      "type": "SCALAR",
      "byteOffset": 396
    }
  ],
  "bufferViews": [
    {
      "buffer": 0,
      "byteLength": 179
    },
    {
      "buffer": 0,
      "byteOffset": 179,
      "byteLength": 87583
    },
    {
      "buffer": 0,
      "byteOffset": 87762,
      "byteLength": 27526
    },
    {
      "buffer": 0,
      "byteOffset": 115288,
      "byteLength": 15888
    },
    {
      "buffer": 0,
      "byteOffset": 131176,
      "byteLength": 15888
    },
    {
      "buffer": 0,
      "byteOffset": 147064,
      "byteLength": 220030
    },
    {
      "buffer": 0,
      "byteOffset": 367094,
      "byteLength": 22551
    },
    {
      "buffer": 0,
      "byteOffset": 389645,
      "byteLength": 69972
    },
    {
      "buffer": 0,
      "byteOffset": 459624,
      "byteLength": 972,
      "target": 34962,
      "byteStride": 12
    },
    {
      "buffer": 0,
      "byteOffset": 460596,
      "byteLength": 972,
      "target": 34962,
      "byteStride": 12
    },
    {
      "buffer": 0,
      "byteOffset": 461568,
      "byteLength": 3012,
      "target": 34962,
      "byteStride": 12
    },
    {
      "buffer": 0,
      "byteOffset": 464580,
      "byteLength": 3012,
      "target": 34962,
      "byteStride": 12
    },
    {
      "buffer": 0,
      "byteOffset": 467592,
      "byteLength": 2008,
      "target": 34962,
      "byteStride": 8
    },
    {
      "buffer": 0,
      "byteOffset": 469600,
      "byteLength": 177,
      "target": 34963
    },
    {
      "buffer": 0,
      "byteOffset": 469777,
      "byteLength": 444,
      "target": 34963
    }
  ],
  "buffers": [
    {
      "uri": "data:application/octet-stream;base64,",
      "byteLength": 470221
    }
  ]
}